<?xml version="1.0" encoding="UTF-8"?>
<svg version="1.1" xmlns="http://www.w3.org/2000/svg" width="500" height="500">
<path d="M0 0 C0 0.66 0 1.32 0 2 C0.56976563 2.226875 1.13953125 2.45375 1.7265625 2.6875 C14.08568537 9.82266372 20.33477806 27.05220509 24 40 C32.40658535 72.2092944 22.09052542 106.4625688 11.63916016 136.90649414 C10.90266655 138.95398905 10.90266655 138.95398905 11 141 C11.66 141.66 12.32 142.32 13 143 C15 145 15 145 15 147 C15.66 147 16.32 147 17 147 C19.59386077 150.14204784 21.75996942 153.60003744 24 157 C24.52207031 157.76828125 25.04414063 158.5365625 25.58203125 159.328125 C30.34378107 166.71574742 33.25692511 174.69897813 36 183 C36.34417969 184.01449219 36.68835938 185.02898437 37.04296875 186.07421875 C42.74087017 206.1105012 39.51575496 227.64018 29.9140625 245.78125 C18.82411659 264.43046516 1.76432353 277.24204035 -19 283 C-35.07081777 286.69110395 -51.05154437 285.49889588 -67 282 C-68.49273437 281.69255859 -68.49273437 281.69255859 -70.015625 281.37890625 C-76.65706296 279.81564381 -82.51016246 276.9742926 -88.52734375 273.8125 C-91.65165963 272.18181095 -94.8097357 270.68280364 -98 269.1875 C-108.96396873 263.70551564 -118.5610712 255.73350517 -128 248 C-129.66529475 246.66495358 -131.33161835 245.33118677 -133 244 C-133.94101563 244.81984375 -134.88203125 245.6396875 -135.8515625 246.484375 C-137.10922114 247.57309442 -138.3670423 248.66162613 -139.625 249.75 C-140.24246094 250.28882813 -140.85992187 250.82765625 -141.49609375 251.3828125 C-151.47942073 260 -151.47942073 260 -155 260 C-155 260.66 -155 261.32 -155 262 C-156.98 262.66 -158.96 263.32 -161 264 C-161 264.66 -161 265.32 -161 266 C-187.30501452 280.48868609 -216.62800077 291.19857648 -247 283 C-257.64248304 279.83766218 -268.36902217 275.06170913 -277 268 C-277 267.34 -277 266.68 -277 266 C-277.55171875 265.77699219 -278.1034375 265.55398438 -278.671875 265.32421875 C-290.46975533 258.61367943 -298.88046154 242.69736403 -302.48046875 230.0625 C-302.65191406 229.381875 -302.82335937 228.70125 -303 228 C-303.20238281 227.319375 -303.40476562 226.63875 -303.61328125 225.9375 C-308.75895405 205.77486372 -304.3147402 182.40135912 -294.6875 164.25 C-293.82138732 162.81497016 -292.92083841 161.40054219 -292 160 C-291.64969727 159.46294434 -291.29939453 158.92588867 -290.93847656 158.37255859 C-289.7430024 156.55166061 -288.53189106 154.74246064 -287.3125 152.9375 C-286.91957764 152.35194336 -286.52665527 151.76638672 -286.12182617 151.16308594 C-285.13386651 149.73742802 -284.07246204 148.36322778 -283 147 C-282.34 147 -281.68 147 -281 147 C-280.731875 146.4225 -280.46375 145.845 -280.1875 145.25 C-278.98280141 142.9674132 -277.59201885 141.0262058 -276 139 C-276.42667969 138.05511719 -276.85335937 137.11023438 -277.29296875 136.13671875 C-290.55103154 105.09250259 -299.45492545 64.8057249 -288 32 C-284.7740848 24.00834358 -280.61551715 15.57171977 -275 9 C-274.34 9 -273.68 9 -273 9 C-272.505 7.515 -272.505 7.515 -272 6 C-271.34 6 -270.68 6 -270 6 C-270 5.34 -270 4.68 -270 4 C-269.34 4 -268.68 4 -268 4 C-268 3.34 -268 2.68 -268 2 C-266.07375664 0.43605947 -264.1691833 -0.97998877 -262.125 -2.375 C-261.53436768 -2.77984619 -260.94373535 -3.18469238 -260.33520508 -3.60180664 C-255.48114821 -6.84199612 -250.60841661 -9.31660279 -245 -11 C-243.86046875 -11.35320312 -242.7209375 -11.70640625 -241.546875 -12.0703125 C-225.80895195 -15.89062409 -206.84990783 -14.40755145 -192 -8 C-191.3311377 -7.71592285 -190.66227539 -7.4318457 -189.97314453 -7.13916016 C-176.62579012 -1.31055214 -164.64068038 6.62303169 -154.671875 17.28515625 C-153.09686146 19.08833498 -153.09686146 19.08833498 -151 20 C-151 20.66 -151 21.32 -151 22 C-150.34 22 -149.68 22 -149 22 C-144 27.47619048 -144 27.47619048 -144 30 C-143.34 30 -142.68 30 -142 30 C-140.56418526 31.61457079 -139.19855217 33.29219075 -137.875 35 C-136.78832031 36.3921875 -136.78832031 36.3921875 -135.6796875 37.8125 C-135.12539062 38.534375 -134.57109375 39.25625 -134 40 C-132.85742169 38.85742169 -131.7151613 37.71452423 -130.57421875 36.5703125 C-129.43607014 35.43498808 -128.29208825 34.30550131 -127.14453125 33.1796875 C-126.51933594 32.56351563 -125.89414062 31.94734375 -125.25 31.3125 C-124.65703125 30.73113281 -124.0640625 30.14976562 -123.453125 29.55078125 C-121.90358196 28.04486026 -121.90358196 28.04486026 -121 26 C-120.34 26 -119.68 26 -119 26 C-119 25.34 -119 24.68 -119 24 C-118.34 24 -117.68 24 -117 24 C-116.34 22.68 -115.68 21.36 -115 20 C-114.34 20 -113.68 20 -113 20 C-113 19.34 -113 18.68 -113 18 C-112.34 18 -111.68 18 -111 18 C-111 17.34 -111 16.68 -111 16 C-110.34 16 -109.68 16 -109 16 C-109 15.34 -109 14.68 -109 14 C-107.14088245 12.36300288 -105.2873959 10.861688 -103.3125 9.375 C-102.72670166 8.9313208 -102.14090332 8.4876416 -101.53735352 8.03051758 C-70.50095775 -15.12335554 -33.41518472 -22.27678981 0 0 Z M-95.5703125 70.37109375 C-97.72952947 73.23559098 -99.86953143 76.11404612 -102 79 C-93.349704 90.70334165 -79.7893427 97.66001412 -67 104 C-65.97777344 104.52207031 -64.95554687 105.04414063 -63.90234375 105.58203125 C-48.01924161 113.55692079 -48.01924161 113.55692079 -31 117 C-30.81824219 116.3709375 -30.63648438 115.741875 -30.44921875 115.09375 C-29.26995202 111.07819559 -28.09132958 107.12307727 -26.5 103.25 C-24.24001932 97.36931728 -23.18066167 91.16862556 -22 85 C-21.79117188 83.94554687 -21.58234375 82.89109375 -21.3671875 81.8046875 C-18.98263535 68.4041761 -17.60102699 52.38499566 -25.0625 40.3125 C-25.701875 39.549375 -26.34125 38.78625 -27 38 C-27.66 38 -28.32 38 -29 38 C-29 37.34 -29 36.68 -29 36 C-57.25520338 22.78671073 -79.87648945 49.69238267 -95.5703125 70.37109375 Z M-236.3125 35.5625 C-242.46490175 41.14258531 -245.376752 48.83743087 -246.20458984 57.02294922 C-246.30426261 59.12417251 -246.32855734 61.20898822 -246.3125 63.3125 C-246.30831055 64.08303711 -246.30412109 64.85357422 -246.29980469 65.64746094 C-245.99360726 81.78471676 -242.71226384 98.29694587 -236 113 C-235.62691369 114.32276056 -235.26953585 115.65232077 -235 117 C-228.74780407 116.63929639 -223.90301971 114.88982867 -218.1875 112.375 C-215.09562825 111.0412514 -211.97995987 109.89028555 -208.8125 108.75 C-195.6705734 103.70753416 -183.91561043 96.86469605 -173 88 C-172.06671875 87.29488281 -171.1334375 86.58976562 -170.171875 85.86328125 C-169.45515625 85.24839844 -168.7384375 84.63351563 -168 84 C-168 83.34 -168 82.68 -168 82 C-167.34 82 -166.68 82 -166 82 C-165.34 80.35 -164.68 78.7 -164 77 C-164.78246094 76.08476562 -165.56492187 75.16953125 -166.37109375 74.2265625 C-167.39333531 73.02613205 -168.41546493 71.82560626 -169.4375 70.625 C-170.2119043 69.72007812 -170.2119043 69.72007812 -171.00195312 68.796875 C-174.88671875 64.2265625 -174.88671875 64.2265625 -176 62 C-176.66 62 -177.32 62 -178 62 C-178 61.34 -178 60.68 -178 60 C-178.66 60 -179.32 60 -180 60 C-180.37511719 59.13955078 -180.37511719 59.13955078 -180.7578125 58.26171875 C-185.49497186 49.6365135 -195.14253759 43.51906386 -203 38 C-203.61488281 37.54367188 -204.22976562 37.08734375 -204.86328125 36.6171875 C-214.1298989 30.40878361 -226.607652 30.98474151 -236.3125 35.5625 Z M-133 115 C-134.05960938 115.96486328 -134.05960938 115.96486328 -135.140625 116.94921875 C-149.16232347 129.41373009 -165.0022959 139.14212283 -182 147 C-182 147.66 -182 148.32 -182 149 C-180.906875 149.37125 -179.81375 149.7425 -178.6875 150.125 C-174.05056659 151.84634828 -169.87247863 154.22316218 -165.56640625 156.63671875 C-162.78809696 158.11256341 -160.03755508 159.17903917 -157 160 C-157 160.66 -157 161.32 -157 162 C-155.02 162.66 -153.04 163.32 -151 164 C-151 164.66 -151 165.32 -151 166 C-149.33861059 167.17361494 -147.61820517 168.26425263 -145.875 169.3125 C-141.59224996 171.9539897 -137.75029626 174.65514117 -134 178 C-130.41726669 176.34643078 -127.19026533 174.32019297 -124 172 C-124 171.34 -124 170.68 -124 170 C-123.26265625 169.73316406 -122.5253125 169.46632813 -121.765625 169.19140625 C-119.05254837 168.02263736 -117.09212532 166.71936872 -114.75 164.9375 C-105.04542129 157.98279442 -93.99489179 152.59786384 -83 148 C-84.36079798 145.27840404 -85.67133201 145.21332867 -88.5 144.1875 C-92.9951768 142.47597435 -97.05437789 140.40347596 -101.1875 137.953125 C-102.95372306 136.84485602 -102.95372306 136.84485602 -105 137 C-105 136.34 -105 135.68 -105 135 C-105.52207031 134.74347656 -106.04414063 134.48695313 -106.58203125 134.22265625 C-112.4300599 131.18086201 -117.30187431 127.46651995 -122.3359375 123.2265625 C-125.78816596 120.34126892 -129.36829456 117.65353836 -133 115 Z M-254 188 C-254.6509259 189.24735567 -255.29551669 190.49801832 -255.9375 191.75 C-256.47697266 192.79414063 -256.47697266 192.79414063 -257.02734375 193.859375 C-260.55928942 201.63249238 -260.19647911 212.44981659 -257.5 220.4375 C-257.005 221.613125 -256.51 222.78875 -256 224 C-255.34 224 -254.68 224 -254 224 C-253.34 225.65 -252.68 227.3 -252 229 C-251.34 229 -250.68 229 -250 229 C-250 229.66 -250 230.32 -250 231 C-240.15753152 238.2877835 -231.03003002 239.70446122 -219 239 C-215.89856708 238.51644325 -213.03164756 237.83631657 -210 237 C-210.721875 236.443125 -211.44375 235.88625 -212.1875 235.3125 C-215 233 -215 233 -217.625 230.3125 C-219.85348846 227.80703206 -219.85348846 227.80703206 -223 227 C-223 226.34 -223 225.68 -223 225 C-223.66 225 -224.32 225 -225 225 C-225 224.34 -225 223.68 -225 223 C-225.66 223 -226.32 223 -227 223 C-228 221 -229 219 -230 217 C-230.66 217 -231.32 217 -232 217 C-232 216.34 -232 215.68 -232 215 C-232.66 215 -233.32 215 -234 215 C-234.36544922 214.18208984 -234.36544922 214.18208984 -234.73828125 213.34765625 C-236.28785643 210.46439098 -238.18445644 208.02663203 -240.1875 205.4375 C-243.98614079 200.45637909 -247.37374753 195.36734456 -250.58984375 189.984375 C-251.05519531 189.32953125 -251.52054688 188.6746875 -252 188 C-252.66 188 -253.32 188 -254 188 Z M-13 188 C-16.09537295 191.78402244 -18.96118075 195.67686905 -21.75 199.6875 C-22.16121094 200.26822266 -22.57242187 200.84894531 -22.99609375 201.44726562 C-25.27365811 204.43997431 -25.27365811 204.43997431 -26 208 C-26.66 208 -27.32 208 -28 208 C-28.99 210.475 -28.99 210.475 -30 213 C-30.66 213 -31.32 213 -32 213 C-33.37248681 214.55315386 -34.67478701 216.16885684 -35.9375 217.8125 C-39.77101183 222.77815177 -39.77101183 222.77815177 -41.75390625 224.69921875 C-43.23058802 225.94048658 -43.23058802 225.94048658 -43 228 C-43.556875 228.2475 -44.11375 228.495 -44.6875 228.75 C-47.42410913 230.22924818 -49.67650869 231.93467439 -52 234 C-52 234.66 -52 235.32 -52 236 C-52.99 236.495 -52.99 236.495 -54 237 C-41.77462667 240.26009955 -31.27684935 239.98832518 -19.98046875 233.9140625 C-18.14575172 232.81891663 -18.14575172 232.81891663 -16 231 C-16 230.34 -16 229.68 -16 229 C-15.34 229 -14.68 229 -14 229 C-8.41103579 223.23074662 -6.37679055 215.70988188 -5.75 207.875 C-6.22381943 200.53079889 -7.64445755 193.35554245 -13 188 Z M-82 199 C-82.33 199.66 -82.66 200.32 -83 201 C-82.01 200.67 -81.02 200.34 -80 200 C-80.66 199.67 -81.32 199.34 -82 199 Z M-86 202 C-86.99 203.485 -86.99 203.485 -88 205 C-86.68 204.34 -85.36 203.68 -84 203 C-84.66 202.67 -85.32 202.34 -86 202 Z M-90 205 C-91.63676257 206.9600281 -91.63676257 206.9600281 -93 209 C-89.87802522 207.6910428 -89.87802522 207.6910428 -88 205 C-88.66 205 -89.32 205 -90 205 Z " fill="#BD93FD" transform="translate(383,119)"/>
<path d="M0 0 C0 0.66 0 1.32 0 2 C0.56976563 2.226875 1.13953125 2.45375 1.7265625 2.6875 C14.08568537 9.82266372 20.33477806 27.05220509 24 40 C31.94325164 70.4340609 23.93588483 106.64286629 12 135 C11.34 135.99 10.68 136.98 10 138 C9.34 138 8.68 138 8 138 C7.67 138.66 7.34 139.32 7 140 C4.96166576 138.7260411 2.96147874 137.38938077 1 136 C1 135.34 1 134.68 1 134 C0.28714844 133.73703125 -0.42570313 133.4740625 -1.16015625 133.203125 C-4.12140129 131.94856727 -6.70027401 130.43561489 -9.4375 128.75 C-16.05423582 124.8195106 -22.87595807 121.87701693 -30 119 C-30.17423452 114.19953859 -29.74945363 110.47126054 -28.1875 105.9375 C-25.94982932 99.03472084 -24.36036588 92.12380951 -23 85 C-22.79246094 83.95199219 -22.58492188 82.90398437 -22.37109375 81.82421875 C-20.20635553 69.66838105 -18.98621043 55.61631081 -24 44 C-24.99187277 42.66060977 -25.99052444 41.32617377 -27 40 C-27 39.34 -27 38.68 -27 38 C-27.66 38 -28.32 38 -29 38 C-29 37.34 -29 36.68 -29 36 C-39.42470854 32.34373479 -47.62670243 31.81694667 -58 36 C-73.02756454 43.52803992 -84.13870908 56.83310079 -94.2109375 69.859375 C-94.90445313 70.75140625 -95.59796875 71.6434375 -96.3125 72.5625 C-96.92738281 73.36816406 -97.54226563 74.17382812 -98.17578125 75.00390625 C-100.01705292 77.01865962 -101.49407818 77.9766103 -104 79 C-107.38133992 75.72773556 -110.6137516 72.32601562 -113.8125 68.875 C-114.60269531 68.02679688 -115.39289063 67.17859375 -116.20703125 66.3046875 C-118 64 -118 64 -118 61 C-118.5775 60.77828125 -119.155 60.5565625 -119.75 60.328125 C-122.6831433 58.59675569 -124.05257427 56.53421022 -126 53.75 C-126.6909375 52.76902344 -127.381875 51.78804688 -128.09375 50.77734375 C-130.09056396 47.86805127 -132.07975452 44.96037844 -134 42 C-133.34 42 -132.68 42 -132 42 C-131.9278125 41.27167969 -131.855625 40.54335937 -131.78125 39.79296875 C-130.78701955 36.23859489 -129.1823792 34.81237555 -126.5 32.3125 C-123.32803323 29.4714243 -123.32803323 29.4714243 -121 26 C-120.34 26 -119.68 26 -119 26 C-119 25.34 -119 24.68 -119 24 C-118.34 24 -117.68 24 -117 24 C-116.34 22.68 -115.68 21.36 -115 20 C-114.34 20 -113.68 20 -113 20 C-113 19.34 -113 18.68 -113 18 C-112.34 18 -111.68 18 -111 18 C-111 17.34 -111 16.68 -111 16 C-110.34 16 -109.68 16 -109 16 C-109 15.34 -109 14.68 -109 14 C-107.14088245 12.36300288 -105.2873959 10.861688 -103.3125 9.375 C-102.72670166 8.9313208 -102.14090332 8.4876416 -101.53735352 8.03051758 C-70.50095775 -15.12335554 -33.41518472 -22.27678981 0 0 Z " fill="#A67BFC" transform="translate(383,119)"/>
<path d="M0 0 C4.42223013 4.23691763 8.30253473 8.83315356 12.1875 13.5625 C12.81591797 14.31724609 13.44433594 15.07199219 14.09179688 15.84960938 C14.69443359 16.58115234 15.29707031 17.31269531 15.91796875 18.06640625 C16.46219482 18.72584229 17.0064209 19.38527832 17.56713867 20.06469727 C18.9778229 21.97004637 20.01064051 23.85045421 21 26 C21.66 26 22.32 26 23 26 C24.578125 27.3203125 24.578125 27.3203125 26.25 29.125 C26.81203125 29.70507812 27.3740625 30.28515625 27.953125 30.8828125 C29 33 29 33 28.4140625 35.98828125 C21.59310133 50.51579799 -1.24719958 60.75794182 -15.32421875 66.73046875 C-18.11595288 67.71824928 -18.11595288 67.71824928 -19 70 C-18.31808594 70.09539062 -17.63617188 70.19078125 -16.93359375 70.2890625 C-13.3617366 71.15467901 -10.29968203 72.68845952 -7.0625 74.375 C-6.46759766 74.67921875 -5.87269531 74.9834375 -5.25976562 75.296875 C-3.50476596 76.19451417 -1.75235626 77.09721129 0 78 C1.99863699 79.00272139 3.99816962 80.00366916 6 81 C6 81.66 6 82.32 6 83 C7.98 83.66 9.96 84.32 12 85 C12 85.66 12 86.32 12 87 C13.051875 87.37125 13.051875 87.37125 14.125 87.75 C19.87327247 90.2492489 22.71410413 92.20906381 25 98 C27.52372901 99.36078035 27.52372901 99.36078035 30 100 C28.625 102 28.625 102 27 104 C26.34 104 25.68 104 25 104 C25 104.66 25 105.32 25 106 C23.63671875 107.375 23.63671875 107.375 21.6875 109 C17.09976372 112.8819307 12.70985957 116.95638472 8.3203125 121.05859375 C6 123 6 123 4 123 C3.505 124.485 3.505 124.485 3 126 C-1.47354489 130.60447791 -6.72573836 134.37394512 -12 138 C-12 137.01 -12 136.02 -12 135 C-10 133.3125 -10 133.3125 -8 132 C-8.54527344 131.5875 -9.09054688 131.175 -9.65234375 130.75 C-17.48565697 124.75115501 -24.90870461 118.59817899 -31.2734375 111.02734375 C-32.40798422 109.69514975 -33.57977386 108.39364263 -34.7890625 107.12890625 C-45.48589493 95.83780536 -53.60362665 82.07080475 -60.07666016 67.99853516 C-61.04248385 65.90804527 -62.04227089 63.83571132 -63.04296875 61.76171875 C-69.52634849 48.04468534 -69.52634849 48.04468534 -68 41 C-64.26083649 37.43475107 -61.94529407 37 -57 37 C-54.75567018 35.12972515 -53.30556798 33.61113596 -52 31 C-50.19154633 30.24949173 -48.35077319 29.57656648 -46.5 28.9375 C-32.90603483 23.84908933 -18.50934427 16.82305281 -8.3046875 6.2421875 C-7 5 -7 5 -5 5 C-5 4.34 -5 3.68 -5 3 C-4.34 3 -3.68 3 -3 3 C-3 2.34 -3 1.68 -3 1 C-2.01 0.67 -1.02 0.34 0 0 Z " fill="#8B69FB" transform="translate(220,198)"/>
<path d="M0 0 C0.495 0.99 0.495 0.99 1 2 C0.34 2 -0.32 2 -1 2 C-1.09667969 2.54914063 -1.19335938 3.09828125 -1.29296875 3.6640625 C-2.18440141 6.60923781 -3.62910925 8.80125054 -5.3125 11.375 C-6.25609375 12.81939453 -6.25609375 12.81939453 -7.21875 14.29296875 C-8.10046875 15.63294922 -8.10046875 15.63294922 -9 17 C-9.4228125 17.67675781 -9.845625 18.35351562 -10.28125 19.05078125 C-11.13321529 20.40295344 -12.05791584 21.70899578 -13 23 C-13.66 23 -14.32 23 -15 23 C-15.66 24.65 -16.32 26.3 -17 28 C-17.66 28 -18.32 28 -19 28 C-19.24621094 28.55042969 -19.49242187 29.10085938 -19.74609375 29.66796875 C-24.01881962 37.61444022 -31.07660834 45.56108268 -39 50 C-40.32 50 -41.64 50 -43 50 C-43.226875 50.5775 -43.45375 51.155 -43.6875 51.75 C-45.34761639 54.59591381 -47.39187957 55.99841921 -50 58 C-51.2375 59.299375 -51.2375 59.299375 -52.5 60.625 C-54.97353671 62.97485987 -56.78091832 63.98828861 -60 65 C-60 65.66 -60 66.32 -60 67 C-64.8981169 71.08176408 -70.37067626 73.80030367 -76.11181641 76.50073242 C-79.28555029 78.0187756 -81.55484786 79.51169811 -84 82 C-86.30302333 82.87596329 -87.44953178 83.23722175 -89.74829102 82.24658203 C-90.32764404 81.83778809 -90.90699707 81.42899414 -91.50390625 81.0078125 C-92.48363403 80.32755005 -92.48363403 80.32755005 -93.4831543 79.63354492 C-94.51243042 78.88681519 -94.51243042 78.88681519 -95.5625 78.125 C-96.62561401 77.37150269 -96.62561401 77.37150269 -97.71020508 76.6027832 C-114.20366473 64.79507157 -114.20366473 64.79507157 -120 57 C-117.17589976 54.07130346 -114.27847819 51.41572077 -111 49 C-110.34 49 -109.68 49 -109 49 C-108.78601563 48.44957031 -108.57203125 47.89914062 -108.3515625 47.33203125 C-106.54163831 44.20912738 -104.04901284 42.05188164 -101.375 39.6875 C-100.83883057 39.20619629 -100.30266113 38.72489258 -99.75024414 38.22900391 C-98.67304575 37.26399686 -97.59340843 36.30170468 -96.51123047 35.34228516 C-95.17773314 34.15786378 -93.8555428 32.96073855 -92.53515625 31.76171875 C-87.38301809 27.1276727 -87.38301809 27.1276727 -84 26 C-83.01 26.33 -82.02 26.66 -81 27 C-80.505 25.515 -80.505 25.515 -80 24 C-78.37353516 22.48193359 -78.37353516 22.48193359 -76.2890625 20.8984375 C-75.53882813 20.32609375 -74.78859375 19.75375 -74.015625 19.1640625 C-73.22671875 18.57367188 -72.4378125 17.98328125 -71.625 17.375 C-70.84382813 16.776875 -70.06265625 16.17875 -69.2578125 15.5625 C-63.41018784 11.13672928 -63.41018784 11.13672928 -60 10 C-60.495 8.515 -60.495 8.515 -61 7 C-43.78241961 -1.12589868 -18.17969272 -11.29531929 0 0 Z " fill="#8367FC" transform="translate(370,304)"/>
<path d="M0 0 C0.68481445 0.29471191 1.36962891 0.58942383 2.07519531 0.89306641 C11.16158058 4.91727619 19.2170052 9.79998719 27 16 C23.98968256 16.93423645 23.13349732 17.04449911 20 16 C18.97702078 15.02351983 17.98095748 14.01868662 17 13 C13.60384941 9.96133895 11.4237423 8.8148999 7 8 C5.375 6.5625 5.375 6.5625 4 5 C-3.25491947 0.16338702 -12.41734582 -1 -21 -1 C-21.495 -1.99 -21.495 -1.99 -22 -3 C-40.72591761 -3.69485179 -40.72591761 -3.69485179 -57 4 C-57.99 4 -58.98 4 -60 4 C-60.99 4.33 -61.98 4.66 -63 5 C-63.33 5.99 -63.66 6.98 -64 8 C-64.73863281 7.9071875 -65.47726563 7.814375 -66.23828125 7.71875 C-69.14305706 7.73841065 -69.14305706 7.73841065 -71.16796875 9.96875 C-71.83441406 10.8040625 -72.50085938 11.639375 -73.1875 12.5 C-74.42223899 14.02984869 -75.6858009 15.53784471 -77 17 C-77.66 17 -78.32 17 -79 17 C-79.226875 17.886875 -79.45375 18.77375 -79.6875 19.6875 C-81.42256304 24.06646862 -84.15853833 26.48737077 -87.75 29.4375 C-89.60431006 31.75538758 -89.67873538 34.1086184 -90 37 C-89.34 37.33 -88.68 37.66 -88 38 C-88.33 38.99 -88.66 39.98 -89 41 C-90.65 41 -92.3 41 -94 41 C-94.144375 42.216875 -94.28875 43.43375 -94.4375 44.6875 C-94.81061862 47.83235696 -95.36552985 50.89762757 -96 54 C-98.15799671 65.30979299 -99.0961654 76.6098071 -97 88 C-96.75004616 89.74715209 -96.51949779 91.49723953 -96.3125 93.25 C-96.20550781 94.10078125 -96.09851563 94.9515625 -95.98828125 95.828125 C-96 98 -96 98 -98 100 C-104.0791475 73.2045343 -101.39105437 46.74584275 -87.28515625 23.12890625 C-84.47861764 18.73039463 -84.47861764 18.73039463 -83 17 C-82.34 17 -81.68 17 -81 17 C-80.67 16.01 -80.34 15.02 -80 14 C-79.34 14 -78.68 14 -78 14 C-78 13.34 -78 12.68 -78 12 C-77.34 12 -76.68 12 -76 12 C-76 11.34 -76 10.68 -76 10 C-74.07375664 8.43605947 -72.1691833 7.02001123 -70.125 5.625 C-69.53436768 5.22015381 -68.94373535 4.81530762 -68.33520508 4.39819336 C-63.48114821 1.15800388 -58.60841661 -1.31660279 -53 -3 C-51.86046875 -3.35320312 -50.7209375 -3.70640625 -49.546875 -4.0703125 C-33.82393558 -7.88698687 -14.8334615 -6.42432481 0 0 Z " fill="#DABFF0" transform="translate(191,111)"/>
<path d="M0 0 C5.28 0.33 10.56 0.66 16 1 C16 1.66 16 2.32 16 3 C16.825 3.103125 17.65 3.20625 18.5 3.3125 C22.46215829 4.09078109 26.45009486 5.01747541 30 7 C30.495 8.485 30.495 8.485 31 10 C31.86625 10.391875 32.7325 10.78375 33.625 11.1875 C38.14676515 13.61585536 40.82074768 17.04004371 44 21 C43.34 21.66 42.68 22.32 42 23 C41.07380859 22.12988281 41.07380859 22.12988281 40.12890625 21.2421875 C30.18079867 12.06630745 20.12045477 3.97673731 6 4 C0.3768577 4.60454991 -3.50992504 5.5151657 -8 9 C-8.66 9 -9.32 9 -10 9 C-10.268125 9.680625 -10.53625 10.36125 -10.8125 11.0625 C-11.68704293 13.22584305 -12.61127679 15.36926002 -13.5625 17.5 C-20.88921315 35.33895376 -15.07689359 62.01376242 -8.078125 79.2734375 C-7.80484375 79.88445312 -7.5315625 80.49546875 -7.25 81.125 C-6 84 -6 84 -6 88 C-5.01 88.33 -4.02 88.66 -3 89 C-4.32 89 -5.64 89 -7 89 C-7 88.01 -7 87.02 -7 86 C-7.99 85.67 -8.98 85.34 -10 85 C-10.13664063 84.30390625 -10.27328125 83.6078125 -10.4140625 82.890625 C-11.03355706 79.83445184 -11.67871657 76.78968897 -12.375 73.75 C-12.60960937 72.69296875 -12.84421875 71.6359375 -13.0859375 70.546875 C-13.38757813 69.70640625 -13.68921875 68.8659375 -14 68 C-14.99 67.67 -15.98 67.34 -17 67 C-17.33 65.02 -17.66 63.04 -18 61 C-17.34 61 -16.68 61 -16 61 C-16.30750371 58.85344499 -16.6211366 56.70776715 -16.9375 54.5625 C-17.11152344 53.36753906 -17.28554687 52.17257813 -17.46484375 50.94140625 C-17.68985213 48.12044324 -17.68985213 48.12044324 -19 47 C-19.28423699 43.38329963 -19.23200245 39.75150617 -19.25 36.125 C-19.270625 35.1246875 -19.29125 34.124375 -19.3125 33.09375 C-19.35366673 25.12798853 -18.81999916 16.1654646 -13.75 9.625 C-5.76190476 2 -5.76190476 2 0 2 C0 1.34 0 0.68 0 0 Z " fill="#D5B9ED" transform="translate(154,148)"/>
<path d="M0 0 C1.21797875 2.43595751 1.09958619 3.96574228 1.0625 6.68359375 C1.05476563 7.61107422 1.04703125 8.53855469 1.0390625 9.49414062 C1.01307267 11.45247465 0.98703121 13.41080798 0.9609375 15.36914062 C0.95320313 16.29791016 0.94546875 17.22667969 0.9375 18.18359375 C0.92589844 19.03493896 0.91429688 19.88628418 0.90234375 20.76342773 C0.90500068 23.17257453 0.90500068 23.17257453 2 26 C3.65 26 5.3 26 7 26 C7.02701408 28.10409639 7.04640223 30.20829178 7.0625 32.3125 C7.07410156 33.48425781 7.08570312 34.65601563 7.09765625 35.86328125 C7 39 7 39 6 42 C6.66 42 7.32 42 8 42 C8 42.99 8 43.98 8 45 C8.66 45 9.32 45 10 45 C10.2475 45.721875 10.495 46.44375 10.75 47.1875 C12.10808651 50.24319464 13.90383713 52.41473246 16 55 C16 55.66 16 56.32 16 57 C16.61875 57.0825 17.2375 57.165 17.875 57.25 C20 58 20 58 21.125 60 C21.41375 60.66 21.7025 61.32 22 62 C22.66 62.33 23.32 62.66 24 63 C24 63.66 24 64.32 24 65 C25.88316159 66.10836423 25.88316159 66.10836423 28 67 C28.99 66.505 28.99 66.505 30 66 C32.625 67.4375 32.625 67.4375 35 69 C35.66 68.34 36.32 67.68 37 67 C37.99 67.495 37.99 67.495 39 68 C39 68.66 39 69.32 39 70 C38.34 70 37.68 70 37 70 C37.03122943 71.96756452 37.03122943 71.96756452 38 74 C42.14133906 75.97654819 44.62486733 75.9722517 49 75 C49.99 75.99 49.99 75.99 51 77 C50.67 77.66 50.34 78.32 50 79 C52.64 79.66 55.28 80.32 58 81 C58 81.66 58 82.32 58 83 C51.00270175 83 45.96466713 81.35750132 39.8125 78.25 C39.14798828 77.91484375 38.48347656 77.5796875 37.79882812 77.234375 C33.23911137 74.84358012 29.05592274 72.17740251 25 69 C25 68.34 25 67.68 25 67 C24.17242187 66.66548828 24.17242187 66.66548828 23.328125 66.32421875 C11.57701665 59.64028296 3.059074 43.66584263 -0.54296875 31.0703125 C-2.72978212 21.16423484 -1.95752781 11.03276359 -1 1 C-0.67 0.67 -0.34 0.34 0 0 Z " fill="#A98FE8" transform="translate(81,318)"/>
<path d="M0 0 C2 3 2 3 3 6 C2.525625 6.433125 2.05125 6.86625 1.5625 7.3125 C-0.23686957 9.02309613 -0.23686957 9.02309613 -1 12 C0.32 12 1.64 12 3 12 C3.33 12.66 3.66 13.32 4 14 C6.02463255 14.65213292 6.02463255 14.65213292 8 15 C8 15.66 8 16.32 8 17 C8.99 16.67 9.98 16.34 11 16 C12.9453125 17.0390625 12.9453125 17.0390625 15.125 18.625 C19.58833446 21.76179335 24.1919143 24.43114098 29 27 C29 27.66 29 28.32 29 29 C30.65 29.33 32.3 29.66 34 30 C34.66 27.36 35.32 24.72 36 22 C36.33 22 36.66 22 37 22 C37 24.97 37 27.94 37 31 C36.01 31.33 35.02 31.66 34 32 C33.505 32.99 33.505 32.99 33 34 C30.96166576 32.7260411 28.96147874 31.38938077 27 30 C27 29.34 27 28.68 27 28 C26.28714844 27.73703125 25.57429688 27.4740625 24.83984375 27.203125 C21.87859871 25.94856727 19.29972599 24.43561489 16.5625 22.75 C9.94576418 18.8195106 3.12404193 15.87701693 -4 13 C-4.03924323 8.83531255 -3.98387679 5.05849177 -3 1 C-2.01 0.67 -1.02 0.34 0 0 Z " fill="#8E6FEE" transform="translate(357,225)"/>
<path d="M0 0 C-3.0281839 2.01878927 -4.44588331 2.36044596 -7.9375 2.875 C-12.21440068 3.64583675 -14.16419466 4.59703359 -17 8 C-17.99 8 -18.98 8 -20 8 C-20.99 8.33 -21.98 8.66 -23 9 C-23.33 9.99 -23.66 10.98 -24 12 C-25.0209375 11.7834375 -25.0209375 11.7834375 -26.0625 11.5625 C-30.11011407 12.16533614 -31.44829046 14.24589493 -34.15234375 17.17578125 C-36.82015617 19.80975249 -39.67345561 21.30278348 -43 23 C-43 22.34 -43 21.68 -43 21 C-42.34 21 -41.68 21 -41 21 C-40.67 20.01 -40.34 19.02 -40 18 C-39.34 18 -38.68 18 -38 18 C-38 17.34 -38 16.68 -38 16 C-37.34 16 -36.68 16 -36 16 C-36 15.34 -36 14.68 -36 14 C-34.07375664 12.43605947 -32.1691833 11.02001123 -30.125 9.625 C-29.53436768 9.22015381 -28.94373535 8.81530762 -28.33520508 8.39819336 C-23.46658818 5.14828474 -18.60299138 2.74613772 -13 1 C-12.2678125 0.76539062 -11.535625 0.53078125 -10.78125 0.2890625 C-6.87298313 -0.83383507 -3.90821547 -1.22131733 0 0 Z " fill="#E1C8F1" transform="translate(151,107)"/>
<path d="M0 0 C3.42280517 1.46582015 5.56480483 3.38062255 8.125 6.0625 C10.77905 8.91571933 10.77905 8.91571933 14 11 C14 11.66 14 12.32 14 13 C14.66 13 15.32 13 16 13 C21 18.47619048 21 18.47619048 21 21 C21.66 21 22.32 21 23 21 C22.67 21.99 22.34 22.98 22 24 C21.01 23.34 20.02 22.68 19 22 C16.35367713 22.3121764 16.35367713 22.3121764 14 23 C14.185625 22.401875 14.37125 21.80375 14.5625 21.1875 C15.22093687 18.83591238 15.22093687 18.83591238 14 16 C11.36 15.67 8.72 15.34 6 15 C6.33 12.69 6.66 10.38 7 8 C6.34 8 5.68 8 5 8 C5 7.34 5 6.68 5 6 C2.525 5.01 2.525 5.01 0 4 C0 2.68 0 1.36 0 0 Z " fill="#D2B6F0" transform="translate(218,128)"/>
<path d="M0 0 C0.66 0 1.32 0 2 0 C7.29081861 16.12439958 7.4334236 36.17471713 1 52 C0.34 52.66 -0.32 53.32 -1 54 C-0.60331079 49.09358087 -0.12686787 44.34527718 1.0625 39.5625 C3.22596792 29.29822736 3.13103946 17.14599573 0.4375 7.0078125 C-0.07995133 4.63308052 -0.0675394 2.42297585 0 0 Z " fill="#C0A9EA" transform="translate(417,302)"/>
<path d="M0 0 C1.21797875 2.43595751 1.09958619 3.96574228 1.0625 6.68359375 C1.05476563 7.61107422 1.04703125 8.53855469 1.0390625 9.49414062 C1.01307267 11.45247465 0.98703121 13.41080798 0.9609375 15.36914062 C0.95320313 16.29791016 0.94546875 17.22667969 0.9375 18.18359375 C0.92589844 19.03493896 0.91429688 19.88628418 0.90234375 20.76342773 C0.90500068 23.17257453 0.90500068 23.17257453 2 26 C3.65 26 5.3 26 7 26 C7.08078641 28.12438339 7.13909141 30.2496323 7.1875 32.375 C7.22230469 33.55835938 7.25710937 34.74171875 7.29296875 35.9609375 C7.19628906 36.96382813 7.09960938 37.96671875 7 39 C6.01 39.66 5.02 40.32 4 41 C-3.15997136 28.72576339 -2.78737286 14.72792072 -1 1 C-0.67 0.67 -0.34 0.34 0 0 Z " fill="#A07AF6" transform="translate(81,318)"/>
<path d="M0 0 C0.66 0 1.32 0 2 0 C2 0.66 2 1.32 2 2 C2.66 2 3.32 2 4 2 C4.433125 2.474375 4.86625 2.94875 5.3125 3.4375 C7.44693733 5.41383086 9.16307947 5.61663236 12 6 C11.01 6.495 11.01 6.495 10 7 C10.33 8.32 10.66 9.64 11 11 C11.99 10.34 12.98 9.68 14 9 C15.1135172 11.70425605 16.07504977 14.28865296 16.8125 17.125 C18.26773371 20.64819741 19.76439056 21.17478442 23 23 C23.8125 25.1875 23.8125 25.1875 24 27 C22.35 27.33 20.7 27.66 19 28 C18.93941406 27.46632812 18.87882812 26.93265625 18.81640625 26.3828125 C17.63718672 22.94107127 15.30983717 20.55733996 12.9375 17.875 C8 12.25716235 8 12.25716235 8 10 C7.34 10 6.68 10 6 10 C6 9.34 6 8.68 6 8 C5.34 8 4.68 8 4 8 C0 3.64705882 0 3.64705882 0 0 Z " fill="#D1B0F2" transform="translate(199,171)"/>
<path d="M0 0 C3.79068389 1.81293577 7.54429329 3.79638835 10.875 6.375 C10.875 7.035 10.875 7.695 10.875 8.375 C11.73351562 8.71144531 11.73351562 8.71144531 12.609375 9.0546875 C15.52366633 10.7530159 17.07407745 12.83380069 19.125 15.5 C19.83140625 16.41007812 20.5378125 17.32015625 21.265625 18.2578125 C21.79671875 18.95648438 22.3278125 19.65515625 22.875 20.375 C22.215 20.705 21.555 21.035 20.875 21.375 C20.875 20.715 20.875 20.055 20.875 19.375 C19.9778125 19.2821875 19.9778125 19.2821875 19.0625 19.1875 C16.00584514 18.05217105 15.40865974 16.16347225 13.875 13.375 C13.215 13.045 12.555 12.715 11.875 12.375 C11.875 11.715 11.875 11.055 11.875 10.375 C10.225 10.705 8.575 11.035 6.875 11.375 C6.58625 10.735625 6.2975 10.09625 6 9.4375 C5.04676549 7.22293921 5.04676549 7.22293921 2.875 6.375 C2.875 5.385 2.875 4.395 2.875 3.375 C0.565 3.375 -1.745 3.375 -4.125 3.375 C-4.125 2.385 -4.125 1.395 -4.125 0.375 C-2.125 -0.625 -2.125 -0.625 0 0 Z " fill="#B18EEC" transform="translate(372.125,112.625)"/>
<path d="M0 0 C0.33 0 0.66 0 1 0 C1.01981934 0.55872803 1.03963867 1.11745605 1.06005859 1.69311523 C1.1565219 4.27497418 1.26569812 6.85615392 1.375 9.4375 C1.4059375 10.31599609 1.436875 11.19449219 1.46875 12.09960938 C1.72806619 17.95583327 2.57644185 23.31155423 4 29 C4.66 29 5.32 29 6 29 C5.67 30.32 5.34 31.64 5 33 C4.38511719 32.13375 4.38511719 32.13375 3.7578125 31.25 C3.21898438 30.5075 2.68015625 29.765 2.125 29 C1.59132813 28.2575 1.05765625 27.515 0.5078125 26.75 C-0.23855469 25.88375 -0.23855469 25.88375 -1 25 C-1.66 25 -2.32 25 -3 25 C-3 24.34 -3 23.68 -3 23 C-2.34 23 -1.68 23 -1 23 C-1 22.01 -1 21.02 -1 20 C-1.66 19.67 -2.32 19.34 -3 19 C-2.88608368 16.39491364 -2.75934452 13.79154454 -2.625 11.1875 C-2.5940625 10.44951172 -2.563125 9.71152344 -2.53125 8.95117188 C-2.32653852 5.18106885 -2.13566173 3.20349259 0 0 Z " fill="#B89CF1" transform="translate(123,314)"/>
<path d="M0 0 C6.625 -0.25 6.625 -0.25 10 2 C10 2.66 10 3.32 10 4 C11.01320313 4.18175781 11.01320313 4.18175781 12.046875 4.3671875 C13.38492187 4.61855469 13.38492187 4.61855469 14.75 4.875 C15.63171875 5.03742188 16.5134375 5.19984375 17.421875 5.3671875 C20 6 20 6 22.15625 7.09375 C24.70615149 8.34709141 26.33216492 7.7410653 29 7 C29 7.66 29 8.32 29 9 C30.65 8.67 32.3 8.34 34 8 C32.76953125 9.98828125 32.76953125 9.98828125 31 12 C23.67941494 13.53890491 16.60572683 9.12536184 10.39453125 5.7890625 C6.97890218 3.98888055 3.5640487 2.47634038 0 1 C0 0.67 0 0.34 0 0 Z " fill="#B9A2EB" transform="translate(284,387)"/>
<path d="M0 0 C2.43365704 3.65048556 2.07920844 4.85544069 1.625 9.125 C0.92111095 16.65828878 0.63014034 23.54187518 2 31 C2.24922112 32.74725676 2.47691914 34.4976664 2.6875 36.25 C2.79449219 37.10078125 2.90148437 37.9515625 3.01171875 38.828125 C3 41 3 41 1 43 C-1.97420518 29.89039657 -4.33495409 13.00486227 0 0 Z " fill="#D3B8EB" transform="translate(92,168)"/>
<path d="M0 0 C0.66 0.33 1.32 0.66 2 1 C2.7109375 3.484375 2.7109375 3.484375 3.375 6.75 C4.65152009 12.66367471 6.27661582 18.36935139 8.1328125 24.125 C8.92209035 26.74170495 9.51580762 29.31223822 10 32 C10.99 32.33 11.98 32.66 13 33 C11.68 33 10.36 33 9 33 C9 32.01 9 31.02 9 30 C8.01 29.67 7.02 29.34 6 29 C5.86335937 28.30390625 5.72671875 27.6078125 5.5859375 26.890625 C4.96644294 23.83445184 4.32128343 20.78968897 3.625 17.75 C3.39039063 16.69296875 3.15578125 15.6359375 2.9140625 14.546875 C2.61242187 13.70640625 2.31078125 12.8659375 2 12 C1.01 11.67 0.02 11.34 -1 11 C-1.33 9.02 -1.66 7.04 -2 5 C-1.34 5 -0.68 5 0 5 C0 3.35 0 1.7 0 0 Z " fill="#CCACEF" transform="translate(138,204)"/>
<path d="M0 0 C1.86785156 0.01353516 1.86785156 0.01353516 3.7734375 0.02734375 C5.18496094 0.04474609 5.18496094 0.04474609 6.625 0.0625 C6.625 0.7225 6.625 1.3825 6.625 2.0625 C7.346875 2.165625 8.06875 2.26875 8.8125 2.375 C11.90293421 3.13043947 14.04243841 4.21781315 16.625 6.0625 C16.625 6.7225 16.625 7.3825 16.625 8.0625 C15.965 8.0625 15.305 8.0625 14.625 8.0625 C14.295 8.7225 13.965 9.3825 13.625 10.0625 C13.625 9.4025 13.625 8.7425 13.625 8.0625 C12.965 8.0625 12.305 8.0625 11.625 8.0625 C11.625 7.4025 11.625 6.7425 11.625 6.0625 C2.53184111 2.87325012 -4.94114495 2.45673744 -14.375 4.0625 C-14.045 3.0725 -13.715 2.0825 -13.375 1.0625 C-8.85684719 0.17972245 -4.59987306 -0.04339503 0 0 Z " fill="#B799E8" transform="translate(342.375,148.9375)"/>
<path d="M0 0 C0.33 0.66 0.66 1.32 1 2 C0.34 2 -0.32 2 -1 2 C-1.12375 2.61875 -1.2475 3.2375 -1.375 3.875 C-2 6 -2 6 -4 8 C-4.625 5.6875 -4.625 5.6875 -5 3 C-4.34 2.01 -3.68 1.02 -3 0 C-9.00860549 -1.05838127 -14.84627561 -1.11662571 -20.9375 -1.0625 C-22.3925293 -1.05573242 -22.3925293 -1.05573242 -23.87695312 -1.04882812 C-26.2513676 -1.0371315 -28.62565021 -1.02074086 -31 -1 C-31 -1.66 -31 -2.32 -31 -3 C-21.02003421 -5.37434389 -8.94046602 -5.55484737 0 0 Z " fill="#8C6BF2" transform="translate(370,304)"/>
<path d="M0 0 C0.66 0 1.32 0 2 0 C2.72843014 9.55052847 0.5571371 17.90161486 -2 27 C-2.66 27 -3.32 27 -4 27 C-4.3229245 19.71625845 -4.1521567 14.55648593 -1 8 C-0.4868837 5.32514371 -0.23849247 2.71881412 0 0 Z " fill="#9F84E0" transform="translate(405,201)"/>
<path d="M0 0 C2.77870904 0.21010473 5.43991381 0.51711699 8.1875 0.9375 C13.77479523 1.78552833 18.36546296 1.98638178 24 1 C25.64485066 0.93943849 27.29172957 0.91218045 28.9375 0.9375 C29.70964844 0.94652344 30.48179687 0.95554687 31.27734375 0.96484375 C31.84582031 0.97644531 32.41429687 0.98804688 33 1 C28.52850761 5.47149239 21.54013699 4.18382143 15.625 4.1875 C14.59632813 4.19974609 13.56765625 4.21199219 12.5078125 4.22460938 C7.2789089 4.23471679 2.88356263 4.12292327 -2 2 C-1.34 1.34 -0.68 0.68 0 0 Z " fill="#AB8FE5" transform="translate(144,400)"/>
<path d="M0 0 C1.65 0 3.3 0 5 0 C1.87378374 3.39417765 -0.56541027 5.6062718 -5 7 C-5 7.66 -5 8.32 -5 9 C-6.98 9.66 -8.96 10.32 -11 11 C-11 11.66 -11 12.32 -11 13 C-12.65 13 -14.3 13 -16 13 C-14.68818459 9.06455377 -12.04041273 7.25061837 -8.8515625 4.85546875 C-6.50485148 3.77122885 -5.38346137 4.14426387 -3 5 C-3 4.34 -3 3.68 -3 3 C-2.01 3 -1.02 3 0 3 C0 2.01 0 1.02 0 0 Z " fill="#B59AEB" transform="translate(233,372)"/>
<path d="M0 0 C0.66 0.33 1.32 0.66 2 1 C2 1.66 2 2.32 2 3 C-1.70345299 4.98091672 -4.88221077 6.26090962 -9 7 C-10.6792238 7.63437344 -12.35008418 8.29289322 -14 9 C-14 11.31 -14 13.62 -14 16 C-15.99097846 13.01353231 -16.94124926 10.40312738 -18 7 C-17.11957031 6.66226563 -16.23914063 6.32453125 -15.33203125 5.9765625 C-14.17058594 5.53054687 -13.00914062 5.08453125 -11.8125 4.625 C-10.08966797 3.96371094 -10.08966797 3.96371094 -8.33203125 3.2890625 C-6.27130027 2.49182777 -4.22320757 1.65981475 -2.19921875 0.7734375 C-1.47347656 0.51820313 -0.74773437 0.26296875 0 0 Z " fill="#A78AE5" transform="translate(166,230)"/>
<path d="M0 0 C2.36085069 3.54127603 2.48069892 6.32642883 2.6875 10.4375 C2.7280249 11.14455078 2.7685498 11.85160156 2.81030273 12.58007812 C3.10718969 18.7776807 2.75825229 24.84065832 2 31 C1.34 31 0.68 31 0 31 C0 20.77 0 10.54 0 0 Z " fill="#A082E1" transform="translate(407,169)"/>
<path d="M0 0 C0.99 0.33 1.98 0.66 3 1 C1.70476749 9.39001357 -1.0132516 17.08853669 -4 25 C-4.33 25 -4.66 25 -5 25 C-5.14285714 17.57142857 -5.14285714 17.57142857 -4 14 C-3.34 14 -2.68 14 -2 14 C-2.02320313 13.40832031 -2.04640625 12.81664062 -2.0703125 12.20703125 C-2.17411464 7.66198041 -2.13708357 4.14059941 0 0 Z " fill="#9F89E6" transform="translate(399,229)"/>
<path d="M0 0 C-0.125 1.8125 -0.125 1.8125 -1 4 C-3.8125 5.5625 -3.8125 5.5625 -7 7 C-10.4359968 9.22739561 -10.4359968 9.22739561 -12 13 C-15 12 -15 12 -18 10 C-15.70912072 8.51960151 -13.41734017 7.04063324 -11.125 5.5625 C-10.47402344 5.14162109 -9.82304687 4.72074219 -9.15234375 4.28710938 C-2.49875 0 -2.49875 0 0 0 Z " fill="#B897EE" transform="translate(304,114)"/>
<path d="M0 0 C0.66 0 1.32 0 2 0 C1.67 0.99 1.34 1.98 1 3 C0.34 3 -0.32 3 -1 3 C-1 3.66 -1 4.32 -1 5 C-10.77469223 7.91161045 -21.26909663 10.32484594 -31 6 C-31 5.67 -31 5.34 -31 5 C-29.75605469 5.04640625 -28.51210938 5.0928125 -27.23046875 5.140625 C-17.84376385 5.38297814 -9.53753821 5.52307875 -1 1 C-0.67 0.67 -0.34 0.34 0 0 Z " fill="#B398E9" transform="translate(362,352)"/>
<path d="M0 0 C3.35414799 -0.02929977 6.70826253 -0.0468989 10.0625 -0.0625 C11.00544922 -0.07087891 11.94839844 -0.07925781 12.91992188 -0.08789062 C18.0630768 -0.10581103 22.93258427 0.10740389 28 1 C24.09229062 3.60513959 20.77770921 3.29367565 16.25 3.25 C15.46367187 3.25773437 14.67734375 3.26546875 13.8671875 3.2734375 C8.87084755 3.25683836 4.73632991 2.59566195 0 1 C0 0.67 0 0.34 0 0 Z " fill="#A88BE3" transform="translate(326,401)"/>
<path d="M0 0 C0.99 0.33 1.98 0.66 3 1 C5.06864894 5.51587416 5.19869463 9.34237173 4.875 14.25 C4.81054688 15.47203125 4.74609375 16.6940625 4.6796875 17.953125 C4 21 4 21 1.9453125 22.421875 C1.30335938 22.61265625 0.66140625 22.8034375 0 23 C0.08378906 22.01 0.16757812 21.02 0.25390625 20 C0.79072537 13.21202955 1.23857696 6.74336345 0 0 Z " fill="#BFA5EC" transform="translate(375,315)"/>
<path d="M0 0 C-0.51949219 0.56847656 -1.03898437 1.13695312 -1.57421875 1.72265625 C-4.88345976 5.38667726 -8.11220817 9.00737525 -10.9375 13.0625 C-11.9584375 14.5165625 -11.9584375 14.5165625 -13 16 C-13.33 16 -13.66 16 -14 16 C-14.08004482 12.4780279 -14.04005702 9.38018531 -13 6 C-11.35 5.67 -9.7 5.34 -8 5 C-7.9175 4.38125 -7.835 3.7625 -7.75 3.125 C-7 1 -7 1 -5.125 -0.3125 C-3 -1 -3 -1 0 0 Z " fill="#AB91EA" transform="translate(298,178)"/>
<path d="M0 0 C1.22199943 2.44399886 1.09943833 3.99146975 1.0625 6.71875 C1.05476563 7.65074219 1.04703125 8.58273437 1.0390625 9.54296875 C1.01302083 11.51432292 0.98697917 13.48567708 0.9609375 15.45703125 C0.95320313 16.38902344 0.94546875 17.32101562 0.9375 18.28125 C0.92589844 19.13783203 0.91429688 19.99441406 0.90234375 20.87695312 C0.85871451 23.05546458 0.85871451 23.05546458 2 25 C2.22950319 27.204364 2.41075933 29.41392173 2.5625 31.625 C2.64628906 32.81351562 2.73007813 34.00203125 2.81640625 35.2265625 C2.87699219 36.14179688 2.93757813 37.05703125 3 38 C-4.03651041 27.44523438 -2.56680025 13.03381232 -1 1 C-0.67 0.67 -0.34 0.34 0 0 Z " fill="#A88AEA" transform="translate(81,318)"/>
<path d="M0 0 C0.99 0 1.98 0 3 0 C1.92767098 3.53868578 0.39050846 5.81169097 -2.0625 8.5 C-4.53972052 11.25447635 -5.76884956 13.1860177 -6 17 C-6.99 16.67 -7.98 16.34 -9 16 C-8.45954638 11.52078591 -6.76807004 8.80356835 -4.125 5.1875 C-3.42632812 4.21167969 -2.72765625 3.23585938 -2.0078125 2.23046875 C-1.34523438 1.49441406 -0.68265625 0.75835937 0 0 Z " fill="#AB8CEC" transform="translate(98,269)"/>
<path d="M0 0 C1.5625 1.1875 1.5625 1.1875 3 3 C2.6875 5.6875 2.6875 5.6875 2 8 C1.01 8 0.02 8 -1 8 C-1.66 8.66 -2.32 9.32 -3 10 C-3.66 9.34 -4.32 8.68 -5 8 C-4.67 7.34 -4.34 6.68 -4 6 C-4.99 5.67 -5.98 5.34 -7 5 C-6.34 5 -5.68 5 -5 5 C-5 4.34 -5 3.68 -5 3 C-4.34 3 -3.68 3 -3 3 C-3 2.34 -3 1.68 -3 1 C-2.01 0.67 -1.02 0.34 0 0 Z " fill="#906CF2" transform="translate(220,198)"/>
<path d="M0 0 C5.75 -0.125 5.75 -0.125 8 1 C9.59447464 1.08400529 11.19240545 1.10727467 12.7890625 1.09765625 C14.20058594 1.09282227 14.20058594 1.09282227 15.640625 1.08789062 C16.62546875 1.07951172 17.6103125 1.07113281 18.625 1.0625 C20.11386719 1.05573242 20.11386719 1.05573242 21.6328125 1.04882812 C24.0886016 1.03702145 26.54427104 1.020554 29 1 C28.67 1.66 28.34 2.32 28 3 C19.42 3.33 10.84 3.66 2 4 C2 3.01 2 2.02 2 1 C1.34 0.67 0.68 0.34 0 0 Z " fill="#A286DF" transform="translate(142,356)"/>
<path d="M0 0 C2.12038635 2.61514317 4.13091744 5.19637616 6 8 C5.34 8 4.68 8 4 8 C3.67 9.32 3.34 10.64 3 12 C1.68 12.33 0.36 12.66 -1 13 C-0.67 11.68 -0.34 10.36 0 9 C-0.99 8.67 -1.98 8.34 -3 8 C-2.67 7.34 -2.34 6.68 -2 6 C-1.34 6 -0.68 6 0 6 C0 4.02 0 2.04 0 0 Z " fill="#9D76F0" transform="translate(125,298)"/>
<path d="M0 0 C0.66 0 1.32 0 2 0 C1.47437173 3.78452355 0.73485867 6.26514133 -2 9 C-4.625 9.625 -4.625 9.625 -7 10 C-7.33 10.66 -7.66 11.32 -8 12 C-8 9.16032769 -7.59732819 6.76264289 -7 4 C-3.535 3.505 -3.535 3.505 0 3 C0 2.01 0 1.02 0 0 Z " fill="#AE8EF1" transform="translate(408,366)"/>
<path d="M0 0 C0.66 0.33 1.32 0.66 2 1 C1.814375 2.0725 1.62875 3.145 1.4375 4.25 C1.0695432 7.40391546 0.95534657 9.09818492 2 12 C1.01 12 0.02 12 -1 12 C-1.66 13.98 -2.32 15.96 -3 18 C-4.20838642 14.37484074 -3.77144091 12.19740731 -3.1875 8.4375 C-3.01605469 7.28121094 -2.84460938 6.12492187 -2.66796875 4.93359375 C-2 2 -2 2 0 0 Z " fill="#A87DF9" transform="translate(86,291)"/>
<path d="M0 0 C0.66 0.33 1.32 0.66 2 1 C0.625 3.5 0.625 3.5 -1 6 C-1.66 6 -2.32 6 -3 6 C-4.35500919 7.31129922 -5.68671343 8.64691687 -7 10 C-10 12 -10 12 -12.1875 11.625 C-12.785625 11.41875 -13.38375 11.2125 -14 11 C-9.25 7 -9.25 7 -7 7 C-7 6.34 -7 5.68 -7 5 C-5.46875 3.7109375 -5.46875 3.7109375 -3.5 2.375 C-2.8503125 1.92898438 -2.200625 1.48296875 -1.53125 1.0234375 C-0.77328125 0.51683594 -0.77328125 0.51683594 0 0 Z " fill="#C0A5EB" transform="translate(266,284)"/>
<path d="M0 0 C9.68860296 0.29051283 17.84414513 1.73005183 27 5 C23.28125 7.046875 23.28125 7.046875 20.75 6.625 C20.1725 6.41875 19.595 6.2125 19 6 C19 5.34 19 4.68 19 4 C16.69 4.33 14.38 4.66 12 5 C11.67 4.34 11.34 3.68 11 3 C8.41394668 2.5316735 8.41394668 2.5316735 5.4375 2.375 C3.91962891 2.26285156 3.91962891 2.26285156 2.37109375 2.1484375 C1.19740234 2.07496094 1.19740234 2.07496094 0 2 C0 1.34 0 0.68 0 0 Z " fill="#B295E5" transform="translate(341,105)"/>
<path d="M0 0 C0.33 0 0.66 0 1 0 C0.67 6.93 0.34 13.86 0 21 C-0.99 20.34 -1.98 19.68 -3 19 C-3.11076564 16.24882096 -3.04958602 13.78539699 -2.8125 11.0625 C-2.74579102 9.96905273 -2.74579102 9.96905273 -2.67773438 8.85351562 C-2.4029883 5.15292342 -2.09360533 3.140408 0 0 Z " fill="#9273E3" transform="translate(123,314)"/>
<path d="M0 0 C0.33 0.66 0.66 1.32 1 2 C2.98 1.67 4.96 1.34 7 1 C4.70492086 3.44219959 2.26117271 5.35399474 -0.5 7.25 C-1.2734375 7.79140625 -2.046875 8.3328125 -2.84375 8.890625 C-3.5553125 9.25671875 -4.266875 9.6228125 -5 10 C-5.99 9.67 -6.98 9.34 -8 9 C-7.0409375 8.1028125 -7.0409375 8.1028125 -6.0625 7.1875 C-3.79689611 5.09189663 -3.79689611 5.09189663 -3 2 C-2.01 1.34 -1.02 0.68 0 0 Z " fill="#BFA2EF" transform="translate(301,313)"/>
<path d="M0 0 C0.66 0.33 1.32 0.66 2 1 C0.125 6.75 0.125 6.75 -1 9 C-1.99 9 -2.98 9 -4 9 C-4.33 10.98 -4.66 12.96 -5 15 C-5.99 15 -6.98 15 -8 15 C-8 14.34 -8 13.68 -8 13 C-7.34 13 -6.68 13 -6 13 C-5.9175 12.13375 -5.835 11.2675 -5.75 10.375 C-4.8324892 6.24620141 -3.01481551 3.01481551 0 0 Z " fill="#B091EF" transform="translate(376,337)"/>
<path d="M0 0 C2.7758034 2.34468407 3.46680548 4.07396662 4.0625 7.625 C4.42335982 9.97860816 4.42335982 9.97860816 5 12 C5.66 12.33 6.32 12.66 7 13 C6.34 13 5.68 13 5 13 C5.309375 13.928125 5.309375 13.928125 5.625 14.875 C5.74875 15.57625 5.8725 16.2775 6 17 C5.34 17.66 4.68 18.32 4 19 C3.32713788 16.58490559 2.66153988 14.16819644 2 11.75 C1.71382813 10.72712891 1.71382813 10.72712891 1.421875 9.68359375 C0.50042956 6.29399088 0 3.54221024 0 0 Z " fill="#D5B9EF" transform="translate(96,220)"/>
<path d="M0 0 C0.66 0 1.32 0 2 0 C2 0.66 2 1.32 2 2 C2.57234375 2.22429687 3.1446875 2.44859375 3.734375 2.6796875 C6.64866633 4.3780159 8.19907745 6.45880069 10.25 9.125 C10.95640625 10.03507813 11.6628125 10.94515625 12.390625 11.8828125 C13.18726563 12.93082031 13.18726563 12.93082031 14 14 C13.01 14.495 13.01 14.495 12 15 C12 14.34 12 13.68 12 13 C11.401875 12.938125 10.80375 12.87625 10.1875 12.8125 C7.13084514 11.67717105 6.53365974 9.78847225 5 7 C4.34 6.67 3.68 6.34 3 6 C3 5.34 3 4.68 3 4 C2.34 4 1.68 4 1 4 C0.67 2.68 0.34 1.36 0 0 Z " fill="#BFA8EB" transform="translate(381,119)"/>
<path d="M0 0 C0.66 0.33 1.32 0.66 2 1 C2 1.66 2 2.32 2 3 C2.66 3 3.32 3 4 3 C4.33 2.34 4.66 1.68 5 1 C5.17615457 4.87540045 5.28341107 7.75515269 3 11 C2.01 11.33 1.02 11.66 0 12 C-0.125 5.375 -0.125 5.375 1 2 C0.34 1.67 -0.32 1.34 -1 1 C-0.67 0.67 -0.34 0.34 0 0 Z " fill="#B292EF" transform="translate(411,352)"/>
<path d="M0 0 C0.66 0.33 1.32 0.66 2 1 C-0.15381444 6.28663545 -4.42236838 9.77870367 -9 13 C-9.33 12.34 -9.66 11.68 -10 11 C-8.6875 9 -8.6875 9 -7 7 C-6.01 7 -5.02 7 -4 7 C-4 5.68 -4 4.36 -4 3 C-2.68 3 -1.36 3 0 3 C0 2.01 0 1.02 0 0 Z " fill="#9583E3" transform="translate(341,340)"/>
<path d="M0 0 C-0.33 0.99 -0.66 1.98 -1 3 C-1.66 3 -2.32 3 -3 3 C-3.268125 3.680625 -3.53625 4.36125 -3.8125 5.0625 C-5.16053306 8.39710809 -6.57536298 11.69743237 -8 15 C-9.125 13.3125 -9.125 13.3125 -10 11 C-8.95777494 6.93532226 -6.76210816 4.10737168 -4 1 C-2 0 -2 0 0 0 Z " fill="#DEC2EF" transform="translate(147,154)"/>
<path d="M0 0 C8.49056604 6.98113208 8.49056604 6.98113208 10 10 C5.87248551 9.39301257 2.6678852 7.96189209 -1 6 C-0.67 4.02 -0.34 2.04 0 0 Z " fill="#D2B5F4" transform="translate(241,151)"/>
<path d="M0 0 C5.61702128 0.89361702 5.61702128 0.89361702 8.25 1.625 C10.0976086 2.2114853 10.0976086 2.2114853 12 1 C12 1.66 12 2.32 12 3 C13.65 2.67 15.3 2.34 17 2 C15.875 4 15.875 4 14 6 C10.8125 6.25 10.8125 6.25 8 6 C8 5.34 8 4.68 8 4 C7.01 4 6.02 4 5 4 C5 3.34 5 2.68 5 2 C3.35 1.67 1.7 1.34 0 1 C0 0.67 0 0.34 0 0 Z " fill="#A785F0" transform="translate(301,393)"/>
<path d="M0 0 C1.98 0.99 3.96 1.98 6 3 C6.66 2.34 7.32 1.68 8 1 C8.66 1.33 9.32 1.66 10 2 C10 2.66 10 3.32 10 4 C9.34 4 8.68 4 8 4 C7.67 4.99 7.34 5.98 7 7 C4.69 6.67 2.38 6.34 0 6 C-1 3 -1 3 0 0 Z " fill="#A685F2" transform="translate(110,384)"/>
<path d="M0 0 C6.05537521 0.30276876 9.51483458 3.27754038 14 7 C10.98968256 7.93423645 10.13349732 8.04449911 7 7 C5.5625 5.6875 5.5625 5.6875 4 4 C3.278125 3.278125 2.55625 2.55625 1.8125 1.8125 C1.214375 1.214375 0.61625 0.61625 0 0 Z " fill="#D4B7F0" transform="translate(204,120)"/>
<path d="M0 0 C2.50411413 3.7561712 2.06898772 5.27948163 1.4921875 9.5703125 C0.74570504 13.2553291 -0.55068688 16.53425124 -2 20 C-2.33 20 -2.66 20 -3 20 C-2.45136137 13.2142064 -1.45732062 6.64990964 0 0 Z " fill="#B79EE8" transform="translate(419,336)"/>
<path d="M0 0 C0.93423645 3.01031744 1.04449911 3.86650268 0 7 C-1.45635371 7.22174933 -2.91522956 7.42698698 -4.375 7.625 C-5.18710937 7.74101562 -5.99921875 7.85703125 -6.8359375 7.9765625 C-7.55007813 7.98429687 -8.26421875 7.99203125 -9 8 C-9.66 7.34 -10.32 6.68 -11 6 C-8 5 -8 5 -5 6 C-4.67 5.01 -4.34 4.02 -4 3 C-1.9375 1.3125 -1.9375 1.3125 0 0 Z " fill="#937AE9" transform="translate(294,325)"/>
<path d="M0 0 C0.66 0 1.32 0 2 0 C2.33 1.32 2.66 2.64 3 4 C4.65 4.33 6.3 4.66 8 5 C7.01 6.32 6.02 7.64 5 9 C2.03 6.69 -0.94 4.38 -4 2 C-3.34 1.67 -2.68 1.34 -2 1 C-1.34 1.33 -0.68 1.66 0 2 C0 1.34 0 0.68 0 0 Z " fill="#927EEC" transform="translate(261,367)"/>
<path d="M0 0 C0.33 0 0.66 0 1 0 C0.85870713 2.41700987 0.71213513 4.83350429 0.5625 7.25 C0.52318359 7.93191406 0.48386719 8.61382812 0.44335938 9.31640625 C0.23333528 12.64448041 -0.01934002 15.80255402 -1 19 C-1.66 19 -2.32 19 -3 19 C-3.39325819 12.02330843 -2.63096039 6.48343811 0 0 Z " fill="#B294E8" transform="translate(83,296)"/>
<path d="M0 0 C0 3.11227195 -0.45627049 5.94152152 -1 9 C-4.3 9.33 -7.6 9.66 -11 10 C-7.50640535 6.40365256 -3.88901869 3.16548033 0 0 Z " fill="#A790ED" transform="translate(212,204)"/>
<path d="M0 0 C2.92869654 2.82410024 5.58427923 5.72152181 8 9 C8 9.66 8 10.32 8 11 C8.66 11 9.32 11 10 11 C10 11.66 10 12.32 10 13 C6.93617261 12.67567593 6.01029035 12.01098513 3.859375 9.71484375 C3.16328125 8.79832031 2.4671875 7.88179688 1.75 6.9375 C1.04359375 6.01839844 0.3371875 5.09929687 -0.390625 4.15234375 C-0.92171875 3.44207031 -1.4528125 2.73179687 -2 2 C-1.34 1.34 -0.68 0.68 0 0 Z " fill="#C1A6EB" transform="translate(143,322)"/>
<path d="M0 0 C-2.29129293 1.31315613 -4.5830155 2.62555193 -6.875 3.9375 C-7.52597656 4.31068359 -8.17695313 4.68386719 -8.84765625 5.06835938 C-13.7734375 7.88671875 -13.7734375 7.88671875 -16 9 C-15.90234375 6.6796875 -15.90234375 6.6796875 -15 4 C-12.12890625 2.3828125 -12.12890625 2.3828125 -8.5625 1.125 C-7.38816406 0.69445312 -6.21382813 0.26390625 -5.00390625 -0.1796875 C-2 -1 -2 -1 0 0 Z " fill="#8F6CF5" transform="translate(333,303)"/>
<path d="M0 0 C1.48199902 0.44909061 2.96055236 0.90956564 4.4375 1.375 C5.26121094 1.63023437 6.08492188 1.88546875 6.93359375 2.1484375 C9 3 9 3 10 5 C9.34 5 8.68 5 8 5 C7.87625 5.61875 7.7525 6.2375 7.625 6.875 C7 9 7 9 5 11 C4.375 8.6875 4.375 8.6875 4 6 C4.66 5.01 5.32 4.02 6 3 C3.69 2.67 1.38 2.34 -1 2 C-0.67 1.34 -0.34 0.68 0 0 Z " fill="#8E72E9" transform="translate(361,301)"/>
<path d="M0 0 C5.22158835 4.23372028 6.39656953 8.60794611 8 15 C8.33 15.99 8.66 16.98 9 18 C8.34 18 7.68 18 7 18 C5.82887054 15.37690901 4.66294036 12.75171858 3.5 10.125 C3.16613281 9.37863281 2.83226562 8.63226563 2.48828125 7.86328125 C2.17246094 7.14785156 1.85664063 6.43242187 1.53125 5.6953125 C1.23798828 5.03547363 0.94472656 4.37563477 0.64257812 3.69580078 C0 2 0 2 0 0 Z " fill="#9A71F2" transform="translate(153,248)"/>
<path d="M0 0 C1.9766813 3.35387729 2.42766743 6.26648949 2.75 10.125 C2.84796875 11.17945313 2.9459375 12.23390625 3.046875 13.3203125 C3 16 3 16 1 18 C-1.3938068 5.98821945 -1.3938068 5.98821945 -1 1 C-0.67 0.67 -0.34 0.34 0 0 Z " fill="#D8BDF3" transform="translate(92,193)"/>
<path d="M0 0 C0.928125 0.66 1.85625 1.32 2.8125 2 C5.79636556 4.26574554 5.79636556 4.26574554 9 4 C9 5.98 9 7.96 9 10 C7.68 10.33 6.36 10.66 5 11 C5.33 9.68 5.66 8.36 6 7 C5.195625 6.5875 4.39125 6.175 3.5625 5.75 C1 4 1 4 0.1875 1.8125 C0.125625 1.214375 0.06375 0.61625 0 0 Z " fill="#B399EF" transform="translate(243,292)"/>
<path d="M0 0 C4.69159716 3.38772897 9.0299782 6.78185183 13 11 C11.68 11 10.36 11 9 11 C9 10.34 9 9.68 9 9 C8.2575 8.773125 7.515 8.54625 6.75 8.3125 C3.4574253 6.7410439 2.02502891 5.00004284 0 2 C0 1.34 0 0.68 0 0 Z " fill="#CEB5E9" transform="translate(282,200)"/>
<path d="M0 0 C0.66 0.33 1.32 0.66 2 1 C1.2884375 1.6496875 1.2884375 1.6496875 0.5625 2.3125 C-1.23686957 4.02309613 -1.23686957 4.02309613 -2 7 C-3.5234375 8.421875 -3.5234375 8.421875 -5.375 9.75 C-5.98085938 10.19859375 -6.58671875 10.6471875 -7.2109375 11.109375 C-9 12 -9 12 -12 11 C-11.34 11 -10.68 11 -10 11 C-10 10.34 -10 9.68 -10 9 C-9.34 9 -8.68 9 -8 9 C-8 8.34 -8 7.68 -8 7 C-7.34 7 -6.68 7 -6 7 C-6 6.34 -6 5.68 -6 5 C-4.04072937 3.2856382 -2.04119788 1.61594832 0 0 Z " fill="#BCA2E8" transform="translate(280,128)"/>
<path d="M0 0 C0.66 0.33 1.32 0.66 2 1 C2 1.66 2 2.32 2 3 C2.804375 3.268125 3.60875 3.53625 4.4375 3.8125 C5.283125 4.204375 6.12875 4.59625 7 5 C7.33 5.99 7.66 6.98 8 8 C7.34 8.66 6.68 9.32 6 10 C3.375 9.625 3.375 9.625 1 9 C1.99 8.34 2.98 7.68 4 7 C2.35 5.68 0.7 4.36 -1 3 C-0.67 2.01 -0.34 1.02 0 0 Z " fill="#B396EB" transform="translate(167,348)"/>
<path d="M0 0 C0.99 0.33 1.98 0.66 3 1 C3.70211894 2.65204456 4.36971413 4.31923769 5 6 C5.66 6.33 6.32 6.66 7 7 C6.01 8.32 5.02 9.64 4 11 C2.68 10.67 1.36 10.34 0 10 C0.66 9.01 1.32 8.02 2 7 C1.19351312 3.34329469 1.19351312 3.34329469 0 0 Z " fill="#D1B0F3" transform="translate(105,251)"/>
<path d="M0 0 C0.33 0 0.66 0 1 0 C1.125 5.75 1.125 5.75 0 8 C-0.2275015 9.87056791 -0.40962811 11.74685958 -0.5625 13.625 C-0.64628906 14.62789062 -0.73007812 15.63078125 -0.81640625 16.6640625 C-0.87699219 17.43492187 -0.93757813 18.20578125 -1 19 C-1.66 19 -2.32 19 -3 19 C-3.31461385 11.90370975 -3.44572039 6.31715405 0 0 Z " fill="#9475EC" transform="translate(404,209)"/>
<path d="M0 0 C1.63001953 0.01353516 1.63001953 0.01353516 3.29296875 0.02734375 C4.12441406 0.03894531 4.95585937 0.05054687 5.8125 0.0625 C1.45099747 2.97016835 -1.94616344 3.4043263 -7.1875 3.0625 C-7.8475 2.4025 -8.5075 1.7425 -9.1875 1.0625 C-5.90230525 -0.03256492 -3.45086585 -0.03710608 0 0 Z " fill="#B495E8" transform="translate(332.1875,105.9375)"/>
<path d="M0 0 C1.46015291 0.28241641 2.91809793 0.57626614 4.375 0.875 C5.18710938 1.03742188 5.99921875 1.19984375 6.8359375 1.3671875 C9 2 9 2 11 4 C12.31747324 4.69748583 13.64914193 5.36959957 15 6 C13.359375 6.68359375 13.359375 6.68359375 11 7 C8.203125 5.78515625 8.203125 5.78515625 5.25 4.0625 C4.26515625 3.49660156 3.2803125 2.93070312 2.265625 2.34765625 C1.51796875 1.90292969 0.7703125 1.45820313 0 1 C0 0.67 0 0.34 0 0 Z " fill="#B19AE7" transform="translate(112,390)"/>
<path d="M0 0 C2 3 2 3 3 6 C1.625 7.5 1.625 7.5 0 9 C-0.66 9 -1.32 9 -2 9 C-2 6.36 -2 3.72 -2 1 C-1.34 0.67 -0.68 0.34 0 0 Z " fill="#8B6CF1" transform="translate(357,225)"/>
<path d="M0 0 C0 0.66 0 1.32 0 2 C-3 4 -3 4 -7 4 C-7 4.66 -7 5.32 -7 6 C-9.31 6 -11.62 6 -14 6 C-10.292996 2.7563715 -5.02493834 0 0 0 Z " fill="#AB93E7" transform="translate(187,222)"/>
<path d="M0 0 C2.04119788 1.61594832 4.04072937 3.2856382 6 5 C6 5.66 6 6.32 6 7 C3.69 7 1.38 7 -1 7 C-0.67 4.69 -0.34 2.38 0 0 Z " fill="#D3A8FB" transform="translate(225,136)"/>
<path d="M0 0 C0 0.66 0 1.32 0 2 C-1.32 2.33 -2.64 2.66 -4 3 C-4 5.31 -4 7.62 -4 10 C-5.99097846 7.01353231 -6.94124926 4.40312738 -8 1 C-5.07175348 0.02391783 -3.04386724 -0.08226668 0 0 Z " fill="#9E76EF" transform="translate(156,236)"/>
<path d="M0 0 C1.125 3.75 1.125 3.75 0 6 C-1.33333333 6.66666667 -2.66666667 7.33333333 -4 8 C-5.70921589 9.5412312 -5.70921589 9.5412312 -7 11 C-7.66 10.67 -8.32 10.34 -9 10 C-7.8758824 8.70756532 -6.75067408 7.41607925 -5.625 6.125 C-4.99851563 5.40570313 -4.37203125 4.68640625 -3.7265625 3.9453125 C-2.52573166 2.5923402 -1.2791655 1.2791655 0 0 Z " fill="#B89EED" transform="translate(260,148)"/>
<path d="M0 0 C0.80179688 0.09990234 1.60359375 0.19980469 2.4296875 0.30273438 C4.41214691 0.5505418 6.39367009 0.80581807 8.375 1.0625 C8.375 1.3925 8.375 1.7225 8.375 2.0625 C5.58307795 2.11630578 2.7921859 2.15607669 0 2.1875 C-0.7940625 2.20425781 -1.588125 2.22101563 -2.40625 2.23828125 C-4.47992015 2.25585473 -6.55383241 2.16585168 -8.625 2.0625 C-9.285 1.4025 -9.945 0.7425 -10.625 0.0625 C-7.27167665 -1.61416168 -3.61435125 -0.47232999 0 0 Z " fill="#9B7AE6" transform="translate(152.625,400.9375)"/>
<path d="M0 0 C1.32 0.33 2.64 0.66 4 1 C1.86725921 3.34601486 -0.02537789 4.86264449 -3 6 C-5.75 6.125 -5.75 6.125 -8 6 C-7.34 5.67 -6.68 5.34 -6 5 C-6 4.34 -6 3.68 -6 3 C-4.35 3 -2.7 3 -1 3 C-0.67 2.01 -0.34 1.02 0 0 Z " fill="#AC92E5" transform="translate(204,390)"/>
<path d="M0 0 C0.66 0 1.32 0 2 0 C1.125 7.625 1.125 7.625 0 11 C-0.66 11 -1.32 11 -2 11 C-1.85892253 9.54119891 -1.71197585 8.08296449 -1.5625 6.625 C-1.48128906 5.81289062 -1.40007812 5.00078125 -1.31640625 4.1640625 C-1 2 -1 2 0 0 Z " fill="#9172E5" transform="translate(359,213)"/>
<path d="M0 0 C1.67542976 0.28604898 3.34385343 0.61781233 5 1 C2.19195732 3.96404505 -0.18315774 6.44499019 -4 8 C-4 7.34 -4 6.68 -4 6 C-3.34 6 -2.68 6 -2 6 C-1.855625 5.195625 -1.71125 4.39125 -1.5625 3.5625 C-1 1 -1 1 0 0 Z " fill="#B191EE" transform="translate(309,160)"/>
<path d="M0 0 C1 2 1 2 0.4375 4.8125 C-0.04168146 8.30367922 0.44899528 9.89799055 2 13 C-0.64752004 10.42215154 -2.94432065 8.08351902 -5 5 C-4.34 5 -3.68 5 -3 5 C-3 4.34 -3 3.68 -3 3 C-2.34 3 -1.68 3 -1 3 C-0.67 2.01 -0.34 1.02 0 0 Z " fill="#9B74E9" transform="translate(254,156)"/>
<path d="M0 0 C-1.69179328 2.04219706 -2.63727666 2.91793306 -5.26171875 3.51171875 C-6.06222656 3.56972656 -6.86273438 3.62773437 -7.6875 3.6875 C-8.49574219 3.75324219 -9.30398438 3.81898438 -10.13671875 3.88671875 C-11.05904297 3.94279297 -11.05904297 3.94279297 -12 4 C-9.69905075 1.25656051 -8.3914126 0.10176728 -4.875 -0.8125 C-2 -1 -2 -1 0 0 Z " fill="#A98DEB" transform="translate(383,393)"/>
<path d="M0 0 C6.4 -0.49230769 6.4 -0.49230769 9.4375 2 C10.2109375 2.99 10.2109375 2.99 11 4 C8 5 8 5 5.95703125 4.22265625 C5.24933594 3.83980469 4.54164063 3.45695312 3.8125 3.0625 C3.09707031 2.68222656 2.38164062 2.30195313 1.64453125 1.91015625 C1.10183594 1.60980469 0.55914062 1.30945313 0 1 C0 0.67 0 0.34 0 0 Z " fill="#AF97E9" transform="translate(284,387)"/>
<path d="M0 0 C1.65 0 3.3 0 5 0 C5.33 1.32 5.66 2.64 6 4 C4.125 4.625 4.125 4.625 2 5 C1.34 4.34 0.68 3.68 0 3 C0 2.01 0 1.02 0 0 Z " fill="#B08DF4" transform="translate(385,385)"/>
<path d="M0 0 C0.66 0 1.32 0 2 0 C2.125 2.375 2.125 2.375 2 5 C1.34 5.66 0.68 6.32 0 7 C-0.99 7 -1.98 7 -3 7 C-2.25 2.25 -2.25 2.25 0 0 Z " fill="#8A70F0" transform="translate(244,233)"/>
<path d="M0 0 C1.32 0.33 2.64 0.66 4 1 C3.34 1 2.68 1 2 1 C2.226875 1.598125 2.45375 2.19625 2.6875 2.8125 C2.790625 3.534375 2.89375 4.25625 3 5 C1.5625 6.75 1.5625 6.75 0 8 C-0.99 7.67 -1.98 7.34 -3 7 C-2.505 6.030625 -2.01 5.06125 -1.5 4.0625 C0.07331124 1.41867592 0.07331124 1.41867592 0 0 Z " fill="#B191EB" transform="translate(242,362)"/>
<path d="M0 0 C1.32 0.66 2.64 1.32 4 2 C-0.95 4.475 -0.95 4.475 -6 7 C-6.66 6.34 -7.32 5.68 -8 5 C-7.01 5 -6.02 5 -5 5 C-5 4.34 -5 3.68 -5 3 C-3.35 3 -1.7 3 0 3 C0 2.01 0 1.02 0 0 Z " fill="#A793EA" transform="translate(218,254)"/>
<path d="M0 0 C3.44620861 1.1487362 4.09169196 2.07581642 6.1875 4.9375 C6.71730469 5.64777344 7.24710937 6.35804688 7.79296875 7.08984375 C9 9 9 9 9 11 C4.55092795 9.51697598 2.25420608 5.91714499 0 2 C0 1.34 0 0.68 0 0 Z " fill="#996FF0" transform="translate(256,169)"/>
<path d="M0 0 C0.93423645 3.01031744 1.04449911 3.86650268 0 7 C-0.99 7 -1.98 7 -3 7 C-3 6.34 -3 5.68 -3 5 C-3.66 4.67 -4.32 4.34 -5 4 C-3.35 2.68 -1.7 1.36 0 0 Z " fill="#9B83ED" transform="translate(303,318)"/>
<path d="M0 0 C2.64 0 5.28 0 8 0 C7.67 0.99 7.34 1.98 7 3 C5.02 3.33 3.04 3.66 1 4 C0.67 2.68 0.34 1.36 0 0 Z " fill="#AE92EC" transform="translate(208,386)"/>
<path d="M0 0 C1.32 0.33 2.64 0.66 4 1 C3.67 1.66 3.34 2.32 3 3 C4.32 3.33 5.64 3.66 7 4 C6.67 5.32 6.34 6.64 6 8 C4.9970458 6.85675161 3.99770973 5.71032809 3 4.5625 C2.443125 3.92441406 1.88625 3.28632813 1.3125 2.62890625 C0 1 0 1 0 0 Z " fill="#917DE8" transform="translate(250,360)"/>
<path d="M0 0 C4.66154042 1.49835228 5.86610751 4.88463591 8 9 C7.01 9 6.02 9 5 9 C3.61328125 7.5390625 3.61328125 7.5390625 2.3125 5.625 C1.65701172 4.68527344 1.65701172 4.68527344 0.98828125 3.7265625 C0 2 0 2 0 0 Z " fill="#CDB7ED" transform="translate(134,312)"/>
<path d="M0 0 C2.475 0.99 2.475 0.99 5 2 C5 2.66 5 3.32 5 4 C5.66 4.33 6.32 4.66 7 5 C6.01 5.33 5.02 5.66 4 6 C2.35 4.35 0.7 2.7 -1 1 C-0.67 0.67 -0.34 0.34 0 0 Z " fill="#C3A5EC" transform="translate(287,257)"/>
<path d="M0 0 C0.66 0.33 1.32 0.66 2 1 C1.01 1 0.02 1 -1 1 C-0.67 0.67 -0.34 0.34 0 0 Z M-2 2 C-1.67 2.66 -1.34 3.32 -1 4 C-2.4375 6.625 -2.4375 6.625 -4 9 C-4.99 8.67 -5.98 8.34 -7 8 C-4.25 3.125 -4.25 3.125 -2 2 Z " fill="#DFBAF8" transform="translate(113,126)"/>
<path d="M0 0 C3 0 3 0 6 2 C5.67 2.66 5.34 3.32 5 4 C1.9375 4.625 1.9375 4.625 -1 5 C-0.67 3.35 -0.34 1.7 0 0 Z " fill="#A07EF1" transform="translate(126,393)"/>
<path d="M0 0 C5.61 0.33 11.22 0.66 17 1 C17 1.33 17 1.66 17 2 C5.47835991 3.51708428 5.47835991 3.51708428 0 1 C0 0.67 0 0.34 0 0 Z " fill="#A48ADD" transform="translate(331,357)"/>
<path d="M0 0 C2.875 -0.125 2.875 -0.125 6 0 C8 2 8 2 8 4 C6.02 4 4.04 4 2 4 C2 3.01 2 2.02 2 1 C1.34 0.67 0.68 0.34 0 0 Z " fill="#AA8EEC" transform="translate(142,356)"/>
<path d="M0 0 C0.66 0.33 1.32 0.66 2 1 C1.67 2.98 1.34 4.96 1 7 C0.34 7 -0.32 7 -1 7 C-1.33 7.66 -1.66 8.32 -2 9 C-2.125 5.625 -2.125 5.625 -2 2 C-1.34 1.34 -0.68 0.68 0 0 Z " fill="#A685ED" transform="translate(86,291)"/>
<path d="M0 0 C0.66 0 1.32 0 2 0 C4.42857143 6.28571429 4.42857143 6.28571429 3 10 C0.96564469 6.27034861 0 4.33094958 0 0 Z " fill="#BAA0E4" transform="translate(413,290)"/>
<path d="M0 0 C0.66 0.33 1.32 0.66 2 1 C0.875 3.5 0.875 3.5 -1 6 C-4.1875 6.3125 -4.1875 6.3125 -7 6 C-6.21625 5.38125 -5.4325 4.7625 -4.625 4.125 C-2.03162353 2.10141339 -2.03162353 2.10141339 0 0 Z " fill="#CBB0F0" transform="translate(266,284)"/>
<path d="M0 0 C0.66 0 1.32 0 2 0 C1.34 2.64 0.68 5.28 0 8 C-0.99 7.67 -1.98 7.34 -3 7 C-2.25 2.25 -2.25 2.25 0 0 Z " fill="#B394EB" transform="translate(92,278)"/>
<path d="M0 0 C2.66735273 2.48952921 4.55746343 4.63408134 6 8 C3.69 7.34 1.38 6.68 -1 6 C-0.67 4.02 -0.34 2.04 0 0 Z " fill="#C1A6EC" transform="translate(399,266)"/>
<path d="M0 0 C0.66 0 1.32 0 2 0 C1.88590407 1.45922693 1.75834456 2.91740598 1.625 4.375 C1.55539062 5.18710938 1.48578125 5.99921875 1.4140625 6.8359375 C1 9 1 9 -1 11 C-1.14285714 3.57142857 -1.14285714 3.57142857 0 0 Z " fill="#9480E1" transform="translate(395,243)"/>
<path d="M0 0 C0.66 0.99 1.32 1.98 2 3 C1 6 1 6 -1.0625 7.1875 C-1.701875 7.455625 -2.34125 7.72375 -3 8 C-3.75 6.25 -3.75 6.25 -4 4 C-2.0625 1.75 -2.0625 1.75 0 0 Z " fill="#8B6DF9" transform="translate(396,237)"/>
<path d="M0 0 C1.66666667 1.66666667 3.33333333 3.33333333 5 5 C5.8971875 5.8353125 5.8971875 5.8353125 6.8125 6.6875 C8 8 8 8 8 10 C6 10 6 10 3.4375 7.8125 C0.98865517 4.98690982 0.31237863 3.64441732 0 0 Z " fill="#936BF0" transform="translate(223,202)"/>
<path d="M0 0 C-0.33 0.99 -0.66 1.98 -1 3 C-3.31 3.33 -5.62 3.66 -8 4 C-7.25 2.0625 -7.25 2.0625 -6 0 C-3.40292416 -1.05506206 -2.5386068 -1.2693034 0 0 Z " fill="#E2BEFA" transform="translate(103,149)"/>
<path d="M0 0 C-0.33 1.32 -0.66 2.64 -1 4 C-3.375 4.625 -3.375 4.625 -6 5 C-6.66 4.34 -7.32 3.68 -8 3 C-2.25 0 -2.25 0 0 0 Z " fill="#C4A7F1" transform="translate(304,114)"/>
<path d="M0 0 C0.66 0.33 1.32 0.66 2 1 C2 2.65 2 4.3 2 6 C-0.31 6 -2.62 6 -5 6 C-4.34 5.67 -3.68 5.34 -3 5 C-3 4.34 -3 3.68 -3 3 C-1.5 1.375 -1.5 1.375 0 0 Z " fill="#AD87F3" transform="translate(364,352)"/>
<path d="M0 0 C0.33 0.66 0.66 1.32 1 2 C0.67 2.99 0.34 3.98 0 5 C-0.66 5 -1.32 5 -2 5 C-2.33 6.32 -2.66 7.64 -3 9 C-3.33 8.34 -3.66 7.68 -4 7 C-4.66 6.67 -5.32 6.34 -6 6 C-5.01 5.67 -4.02 5.34 -3 5 C-3 4.34 -3 3.68 -3 3 C-2.34 3 -1.68 3 -1 3 C-0.67 2.01 -0.34 1.02 0 0 Z " fill="#C4ABEC" transform="translate(370,345)"/>
<path d="M0 0 C7.57142857 4.14285714 7.57142857 4.14285714 10 7 C7.125 6.75 7.125 6.75 4 6 C2.625 3.9375 2.625 3.9375 2 2 C1.34 2 0.68 2 0 2 C0 1.34 0 0.68 0 0 Z " fill="#AB9AE5" transform="translate(233,285)"/>
<path d="M0 0 C0.33 0 0.66 0 1 0 C2.31626692 3.61973402 3 6.09567131 3 10 C3.99 10.33 4.98 10.66 6 11 C4.68 11 3.36 11 2 11 C2 10.01 2 9.02 2 8 C1.01 7.67 0.02 7.34 -1 7 C-0.67 4.69 -0.34 2.38 0 0 Z " fill="#D5BAEE" transform="translate(145,226)"/>
<path d="M0 0 C0.33 0.66 0.66 1.32 1 2 C1.99 2 2.98 2 4 2 C4 2.66 4 3.32 4 4 C3.01 4 2.02 4 1 4 C0.67 4.66 0.34 5.32 0 6 C-1.32 5.34 -2.64 4.68 -4 4 C-3.34 4 -2.68 4 -2 4 C-2 3.34 -2 2.68 -2 2 C-1.34 2 -0.68 2 0 2 C0 1.34 0 0.68 0 0 Z " fill="#A58EF3" transform="translate(217,199)"/>
<path d="M0 0 C0.99 0 1.98 0 3 0 C3 0.66 3 1.32 3 2 C-0.13498292 3.85776765 -2.37471432 4.20140476 -6 4 C-6 3.34 -6 2.68 -6 2 C-2.25 0.875 -2.25 0.875 0 2 C0 1.34 0 0.68 0 0 Z " fill="#A788E4" transform="translate(367,397)"/>
<path d="M0 0 C0.99 0.33 1.98 0.66 3 1 C-0.465 3.97 -0.465 3.97 -4 7 C-4.33 6.01 -4.66 5.02 -5 4 C-4.0409375 3.8453125 -4.0409375 3.8453125 -3.0625 3.6875 C-2.381875 3.460625 -1.70125 3.23375 -1 3 C-0.67 2.01 -0.34 1.02 0 0 Z " fill="#BAA2E7" transform="translate(396,381)"/>
<path d="M0 0 C2.475 0.99 2.475 0.99 5 2 C3.515 4.475 3.515 4.475 2 7 C1.01 6.67 0.02 6.34 -1 6 C-0.34 6 0.32 6 1 6 C0.67 4.02 0.34 2.04 0 0 Z " fill="#B18EF2" transform="translate(248,356)"/>
<path d="M0 0 C0.99 0.33 1.98 0.66 3 1 C1.35 2.65 -0.3 4.3 -2 6 C-2.99 5.67 -3.98 5.34 -5 5 C-3.35 3.35 -1.7 1.7 0 0 Z " fill="#AC87FE" transform="translate(269,341)"/>
<path d="M0 0 C-0.33 1.32 -0.66 2.64 -1 4 C-3.64 4.33 -6.28 4.66 -9 5 C-2.87096774 0 -2.87096774 0 0 0 Z " fill="#A78EE5" transform="translate(196,217)"/>
<path d="M0 0 C2.86207152 1.28299758 5.0245088 2.530636 7 5 C7 5.99 7 6.98 7 8 C6.34 8 5.68 8 5 8 C0 2.52380952 0 2.52380952 0 0 Z " fill="#976DEF" transform="translate(271,188)"/>
<path d="M0 0 C2 1.8125 2 1.8125 4 4 C4 4.99 4 5.98 4 7 C2.68 6.67 1.36 6.34 0 6 C0 4.02 0 2.04 0 0 Z " fill="#C79FFD" transform="translate(260,177)"/>
<path d="M0 0 C0.66 0 1.32 0 2 0 C2 0.66 2 1.32 2 2 C2.66 2 3.32 2 4 2 C4.66 3.32 5.32 4.64 6 6 C5.34 6.66 4.68 7.32 4 8 C0 3.375 0 3.375 0 0 Z " fill="#D4BAF2" transform="translate(199,171)"/>
<path d="M0 0 C2.33944736 0.28730055 4.6739143 0.61936779 7 1 C3.375 4 3.375 4 0 4 C-0.33 3.01 -0.66 2.02 -1 1 C-0.67 0.67 -0.34 0.34 0 0 Z " fill="#DEC0F4" transform="translate(170,106)"/>
<path d="M0 0 C0.99 0.33 1.98 0.66 3 1 C3 1.66 3 2.32 3 3 C2.34 3 1.68 3 1 3 C0.67 3.99 0.34 4.98 0 6 C-0.99 6 -1.98 6 -3 6 C-2 4 -1 2 0 0 Z " fill="#9B75F7" transform="translate(117,385)"/>
<path d="M0 0 C1.70884005 1.62339805 3.37446717 3.29319053 5 5 C5 5.66 5 6.32 5 7 C3.0625 6.3125 3.0625 6.3125 1 5 C0.25 2.375 0.25 2.375 0 0 Z " fill="#A78AE5" transform="translate(91,367)"/>
<path d="M0 0 C-0.33 0.99 -0.66 1.98 -1 3 C-1.66 3 -2.32 3 -3 3 C-3 3.66 -3 4.32 -3 5 C-3.99 5.33 -4.98 5.66 -6 6 C-6.33 5.01 -6.66 4.02 -7 3 C-2.25 0 -2.25 0 0 0 Z " fill="#C3AAED" transform="translate(364,352)"/>
<path d="M0 0 C2.0625 0.4375 2.0625 0.4375 4 1 C2.68 2.65 1.36 4.3 0 6 C-0.99 5.67 -1.98 5.34 -3 5 C-2.01 4.67 -1.02 4.34 0 4 C-0.33 3.01 -0.66 2.02 -1 1 C-0.67 0.67 -0.34 0.34 0 0 Z " fill="#9171EA" transform="translate(310,310)"/>
<path d="M0 0 C5.75 1.75 5.75 1.75 8 4 C3.25 5.125 3.25 5.125 1 4 C0.375 1.9375 0.375 1.9375 0 0 Z " fill="#CEB3F0" transform="translate(317,223)"/>
<path d="M0 0 C3.465 1.485 3.465 1.485 7 3 C6.67 3.66 6.34 4.32 6 5 C4.68 5 3.36 5 2 5 C2 4.34 2 3.68 2 3 C1.34 3 0.68 3 0 3 C0 2.01 0 1.02 0 0 Z " fill="#C2A7EF" transform="translate(303,216)"/>
<path d="M0 0 C1.98 0 3.96 0 6 0 C4.37660195 1.70884005 2.70680947 3.37446717 1 5 C0.34 5 -0.32 5 -1 5 C-0.67 3.35 -0.34 1.7 0 0 Z " fill="#B69CE5" transform="translate(315,156)"/>
<path d="M0 0 C-0.33 0.66 -0.66 1.32 -1 2 C-3.9375 2.75 -3.9375 2.75 -7 3 C-7.66 2.34 -8.32 1.68 -9 1 C-5.57367167 -0.61798838 -3.61944899 -1.34053666 0 0 Z " fill="#C2A5EA" transform="translate(313,112)"/>
<path d="M0 0 C3.625 0.375 3.625 0.375 7 1 C7 1.66 7 2.32 7 3 C4.03 2.67 1.06 2.34 -2 2 C-1.34 1.34 -0.68 0.68 0 0 Z " fill="#AF8DF0" transform="translate(351,400)"/>
<path d="M0 0 C1.32 0.66 2.64 1.32 4 2 C2.68 3.32 1.36 4.64 0 6 C-0.66 5.67 -1.32 5.34 -2 5 C-1.34 3.35 -0.68 1.7 0 0 Z " fill="#B99FF1" transform="translate(384,388)"/>
<path d="M0 0 C1.32 0.99 2.64 1.98 4 3 C3.01 3.33 2.02 3.66 1 4 C0.67 4.66 0.34 5.32 0 6 C-0.99 5.67 -1.98 5.34 -3 5 C-2.01 3.35 -1.02 1.7 0 0 Z " fill="#A985F3" transform="translate(395,378)"/>
<path d="M0 0 C0.99 0.495 0.99 0.495 2 1 C2 1.99 2 2.98 2 4 C2.66 4 3.32 4 4 4 C3.67 5.32 3.34 6.64 3 8 C1.5 6.8125 1.5 6.8125 0 5 C-0.1875 2.3125 -0.1875 2.3125 0 0 Z " fill="#A990E4" transform="translate(125,339)"/>
<path d="M0 0 C3.96 1.98 3.96 1.98 8 4 C8 4.33 8 4.66 8 5 C5.69 5 3.38 5 1 5 C0.67 3.35 0.34 1.7 0 0 Z " fill="#A08DE7" transform="translate(216,274)"/>
<path d="M0 0 C0 0.99 0 1.98 0 3 C-2.5 5.1875 -2.5 5.1875 -5 7 C-4.75 4.625 -4.75 4.625 -4 2 C-1.9375 0.6875 -1.9375 0.6875 0 0 Z " fill="#AA8AE8" transform="translate(108,260)"/>
</svg>
