<?xml version="1.0" encoding="UTF-8"?>
<svg version="1.1" xmlns="http://www.w3.org/2000/svg" width="1024" height="1024">
<path d="M0 0 C337.92 0 675.84 0 1024 0 C1024 337.92 1024 675.84 1024 1024 C686.08 1024 348.16 1024 0 1024 C0 686.08 0 348.16 0 0 Z " fill="#F7F7F7" transform="translate(0,0)"/>
<path d="M0 0 C1.25554687 0.17144531 2.51109375 0.34289062 3.8046875 0.51953125 C37.00113213 5.78072646 68.17366355 23.03079872 94 44 C95.50240234 45.19496094 95.50240234 45.19496094 97.03515625 46.4140625 C105.45382466 53.27227338 113.12303564 60.91167122 120.8125 68.5625 C121.34838745 69.09312042 121.8842749 69.62374084 122.43640137 70.17044067 C128.68860933 76.37512381 134.58150539 82.66886867 140.05688477 89.5793457 C142.00388657 92.00484174 144.03663331 94.32075899 146.125 96.625 C149.98373643 100.9099021 153.52230034 105.40291576 157 110 C161.22710379 108.4358726 163.56110512 105.2675754 166.3125 101.875 C167.30170483 100.68197773 168.2912866 99.48926789 169.28125 98.296875 C169.99087891 97.43545898 169.99087891 97.43545898 170.71484375 96.55664062 C185.14803956 79.07448704 201.16279028 62.00531293 219 48 C219.82113281 47.30003906 220.64226562 46.60007812 221.48828125 45.87890625 C260.00123608 13.09321936 310.16221625 -5.68935289 360.83007812 -1.78173828 C366.29296744 -1.18898771 371.64508904 -0.22387547 377 1 C378.06105957 1.24145752 378.06105957 1.24145752 379.14355469 1.48779297 C402.73798274 7.11865028 421.73193393 19.3801346 439 36 C439.63164063 36.56847656 440.26328125 37.13695312 440.9140625 37.72265625 C451.68578007 47.70308651 459.29681869 61.09751377 466 74 C466.61617187 75.16660156 467.23234375 76.33320313 467.8671875 77.53515625 C473.35463678 88.5466378 476.88458463 100.12198092 480 112 C480.22880859 112.84868652 480.45761719 113.69737305 480.69335938 114.57177734 C487.64964628 141.65313735 486.31588778 174.70891034 481 202 C480.80132324 203.07540039 480.60264648 204.15080078 480.39794922 205.25878906 C473.54080204 242.06651694 462.48308489 277.75620657 450 313 C450.85980469 313.81339844 451.71960938 314.62679688 452.60546875 315.46484375 C482.07573379 343.83396654 501.23218199 380.66473599 508 421 C508.17660156 422.03463379 508.35320313 423.06926758 508.53515625 424.13525391 C509.92584703 432.94006491 510.40157254 441.59377101 510.375 450.5 C510.37418427 451.54031876 510.37418427 451.54031876 510.37335205 452.60165405 C510.2677187 482.11350083 502.11394694 511.69746553 485 536 C483.98486328 537.44246094 483.98486328 537.44246094 482.94921875 538.9140625 C477.46553969 546.4529037 471.42258417 553.2684577 465 560 C464.26007812 560.79277344 463.52015625 561.58554687 462.7578125 562.40234375 C442.52971915 583.48253627 415.88583909 595.48376916 388 602.6875 C387.23018799 602.89004395 386.46037598 603.09258789 385.66723633 603.30126953 C372.7495065 606.51295601 359.81003783 607.412273 346.5625 607.375 C345.82599213 607.37445618 345.08948425 607.37391235 344.33065796 607.37335205 C330.90041063 607.32812323 318.12065953 605.97241486 305 603 C304.07815918 602.80164551 303.15631836 602.60329102 302.20654297 602.39892578 C262.66348934 593.74393389 224.65485988 574.04707531 193 549 C191.90070451 548.15369306 190.80039157 547.30870655 189.69921875 546.46484375 C179.78372302 538.82439803 169.79215668 530.93171472 161 522 C156.52057719 523.43373931 153.92260658 525.68924163 150.5625 528.9375 C144.04120068 535.0901469 137.13617666 540.58215117 130 546 C129.31083496 546.52964355 128.62166992 547.05928711 127.91162109 547.60498047 C78.27417208 585.66369166 16.52408677 614.40654118 -47.4375 607.25 C-80.79331775 602.25702936 -112.42370169 590.47373024 -138 568 C-138.83917969 567.28199219 -139.67835938 566.56398438 -140.54296875 565.82421875 C-169.02359721 540.96438337 -186.59196976 506.46825704 -191 469 C-191.08540039 468.32428955 -191.17080078 467.6485791 -191.25878906 466.95239258 C-196.92179338 420.12097068 -180.57889725 371.2315949 -151.8125 334.5 C-145.57641487 326.98305921 -138.98619703 319.82293264 -132 313 C-134.17085498 304.38478054 -136.96962604 296.01580801 -139.84048462 287.61660767 C-154.59827257 244.27324795 -166.12484077 200.6740071 -166.375 154.625 C-166.38312714 153.74288849 -166.39125427 152.86077698 -166.39962769 151.95193481 C-166.50922265 136.08727884 -164.92524407 120.5844617 -160.6875 105.25 C-160.47657715 104.47180908 -160.2656543 103.69361816 -160.04833984 102.8918457 C-157.92946329 95.33359201 -155.20306728 88.16725945 -152 81 C-151.49984375 79.8759375 -150.9996875 78.751875 -150.484375 77.59375 C-143.0749727 61.91171407 -133.16563243 48.29086689 -121 36 C-120.4121875 35.35160156 -119.824375 34.70320313 -119.21875 34.03515625 C-89.70671757 2.03869252 -41.07610615 -6.21849389 0 0 Z " fill="#BD93FE" transform="translate(353,219)"/>
<path d="M0 0 C0.70737305 0.16097168 1.41474609 0.32194336 2.14355469 0.48779297 C25.73798274 6.11865028 44.73193393 18.3801346 62 35 C62.63164063 35.56847656 63.26328125 36.13695312 63.9140625 36.72265625 C74.68578007 46.70308651 82.29681869 60.09751377 89 73 C89.61617187 74.16660156 90.23234375 75.33320313 90.8671875 76.53515625 C96.35463678 87.5466378 99.88458463 99.12198092 103 111 C103.34321289 112.27302979 103.34321289 112.27302979 103.69335938 113.57177734 C110.64964628 140.65313735 109.31588778 173.70891034 104 201 C103.80132324 202.07540039 103.60264648 203.15080078 103.39794922 204.25878906 C96.60273875 240.73405367 85.90696945 276.2539335 73 311 C68.93636697 311 68.05942635 309.51704329 65.0625 306.8125 C52.88259639 296.25991769 38.86920224 287.89064682 24.30224609 281.08349609 C21.58227414 279.80340749 18.87930569 278.49024295 16.17578125 277.17578125 C14.11749381 276.1790547 12.05890088 275.18295877 10 274.1875 C9.03215576 273.71876465 8.06431152 273.2500293 7.06713867 272.76708984 C1.78449535 270.23724436 -3.47954094 267.95950257 -9 266 C-7.3733327 259.83343739 -5.62756315 253.71308451 -3.765625 247.61328125 C17.89733725 178.7324177 17.89733725 178.7324177 5.19628906 110.25415039 C-1.06199273 99.23084594 -9.27465154 94.64809828 -20.71875 89.86328125 C-39.10143 85.02688568 -57.56418771 90.69936825 -73.48046875 99.84375 C-78.98516396 103.14387681 -84.03113978 106.94510112 -89 111 C-89.53947266 111.43795898 -90.07894531 111.87591797 -90.63476562 112.32714844 C-103.08281225 122.4995141 -114.86351766 133.61865492 -124.828125 146.26171875 C-126.85783189 148.82075568 -128.94990925 151.30407685 -131.07763672 153.78100586 C-136.68475459 160.31109421 -141.89950335 167.06440402 -147 174 C-148.68281461 176.25352525 -150.37258747 178.5017949 -152.0625 180.75 C-152.81660156 181.75546875 -153.57070313 182.7609375 -154.34765625 183.796875 C-154.89292969 184.52390625 -155.43820312 185.2509375 -156 186 C-160.22358876 184.35351624 -163.07154553 181.23034153 -166.1875 178.0625 C-166.76483887 177.47984375 -167.34217773 176.8971875 -167.93701172 176.296875 C-172.14953888 171.99172617 -176.03734255 167.50546205 -179.77734375 162.78125 C-181.73970932 160.32570644 -183.7656462 157.94313719 -185.82739258 155.57104492 C-192.78087883 147.53915046 -198.98962767 138.99963598 -205.23486328 130.41308594 C-208.08166801 126.52127156 -210.9765413 122.66591951 -213.875 118.8125 C-214.39312256 118.12309326 -214.91124512 117.43368652 -215.44506836 116.72338867 C-216.62932233 115.14838171 -217.81454019 113.57409956 -219 112 C-216.68210882 107.83552217 -213.85288277 104.28064566 -210.75 100.6875 C-210.2547583 100.10919434 -209.7595166 99.53088867 -209.24926758 98.93505859 C-208.26836754 97.79128911 -207.28575765 96.64898332 -206.30126953 95.50830078 C-205.26775716 94.31035718 -204.24024065 93.10724121 -203.21484375 91.90234375 C-189.41510768 75.84382735 -174.66713541 60.08660103 -158 47 C-157.17886719 46.30003906 -156.35773437 45.60007812 -155.51171875 44.87890625 C-113.74892598 9.32666536 -54.70550265 -12.50305065 0 0 Z " fill="#A57AFD" transform="translate(730,220)"/>
<path d="M0 0 C3.41374969 3.33534201 6.5785772 6.76447184 9.625 10.4375 C10.26514038 11.20912476 10.26514038 11.20912476 10.91821289 11.99633789 C14.15881697 15.92475326 17.30698188 19.92115458 20.4375 23.9375 C25.31531533 30.18987889 30.35980966 36.27563822 35.53027344 42.28759766 C37.09173648 44.10688367 38.64351656 45.93418277 40.1953125 47.76171875 C41.2956908 49.0504912 42.39725728 50.33825009 43.5 51.625 C44.03882813 52.25374023 44.57765625 52.88248047 45.1328125 53.53027344 C49.52101189 58.58566901 54.21631779 63.20820125 59.1484375 67.73046875 C61 70 61 70 61.1015625 71.9921875 C55.26574848 82.62909675 40.55731284 90.92211414 31 98 C30.40993164 98.4419873 29.81986328 98.88397461 29.21191406 99.33935547 C6.59934515 116.24267975 -18.37819631 129.30682785 -44 141 C-41.27139349 142.81907101 -38.61028057 144.07800063 -35.60571289 145.35961914 C-26.90730341 149.07526894 -18.45966658 153.2111271 -10.0625 157.5625 C-9.03366699 158.09206299 -8.00483398 158.62162598 -6.94482422 159.16723633 C-0.05507623 162.76952693 6.50413829 166.73187955 13 171 C13.65234619 171.4225708 14.30469238 171.8451416 14.97680664 172.28051758 C48.12849989 193.80524304 48.12849989 193.80524304 61 207 C49.44711799 217.64790625 49.44711799 217.64790625 45.1875 221.3125 C40.55089837 225.32959745 36.1047235 229.55061951 31.62963867 233.74536133 C27.35209181 237.75087938 23.02596489 241.69314945 18.65234375 245.59375 C15.90998952 248.08165899 13.21486312 250.61444291 10.52099609 253.15454102 C4.63959004 258.69649419 -1.27762851 264.0361408 -7.6328125 269.03515625 C-10.25453503 271.21127247 -12.62383556 273.5604148 -15 276 C-15.99 275.67 -16.98 275.34 -18 275 C-16.515 273.515 -16.515 273.515 -15 272 C-15.9590625 271.319375 -15.9590625 271.319375 -16.9375 270.625 C-19 269 -19 269 -20 267 C-20.5775 266.731875 -21.155 266.46375 -21.75 266.1875 C-24.73034332 264.61454102 -26.61879018 262.38796503 -29 260 C-31.09154182 258.19006447 -33.19294879 256.40118391 -35.3125 254.625 C-42.78852825 248.27995041 -49.96843687 241.64877748 -57.04931641 234.8671875 C-58.31593833 233.65478144 -59.58624708 232.4462111 -60.86083984 231.2421875 C-69.69792236 222.87549278 -77.29225708 213.98759453 -84.44287109 204.14257812 C-85.94306981 202.0783348 -87.46429534 200.03108557 -88.98828125 197.984375 C-114.21078642 163.65490178 -133.94965835 122.49382538 -147 82 C-141.1598803 79.32976964 -135.28367905 76.90980843 -129.25 74.71484375 C-127.58479388 74.10160904 -125.91976131 73.48790292 -124.25488281 72.8737793 C-123.3965686 72.55790863 -122.53825439 72.24203796 -121.65393066 71.91659546 C-105.16663805 65.83405775 -88.90816888 59.49200938 -73 52 C-72.12053711 51.58975586 -71.24107422 51.17951172 -70.33496094 50.75683594 C-43.36339221 38.07909448 -20.78145866 21.25376454 0 0 Z " fill="#8B69FD" transform="translate(451,405)"/>
<path d="M0 0 C2.86944265 2.42027001 5.68155005 4.89954835 8.46459961 7.41845703 C10.30851153 9.07335261 12.18293707 10.68979815 14.05859375 12.30859375 C18.22258526 15.94822708 22.17822908 19.76769013 26.0859375 23.6796875 C26.78396484 24.37779541 27.48199219 25.07590332 28.20117188 25.79516602 C32.84843084 30.49376098 37.13250106 35.30352493 41.21875 40.5 C43.07375453 42.83565348 45.01397774 45.03904487 47.0234375 47.2421875 C50.97108197 51.62407286 54.591355 56.23101432 58.19580078 60.89526367 C60.65441838 64.06906022 63.16714585 67.10743325 65.8984375 70.0546875 C68.1484375 72.9296875 68.1484375 72.9296875 67.9765625 74.89477539 C67.02064709 77.2437008 65.92428434 78.55634681 64.1484375 80.36328125 C63.51784424 81.00547607 62.88725098 81.6476709 62.23754883 82.30932617 C61.54814209 82.98842041 60.85873535 83.66751465 60.1484375 84.3671875 C59.43002686 85.07657471 58.71161621 85.78596191 57.97143555 86.5168457 C26.13395361 117.35886626 -15.69551423 133.96767263 -56.6015625 149.0546875 C-57.98636307 149.56789047 -57.98636307 149.56789047 -59.3991394 150.09146118 C-62.04208702 151.0684029 -64.68831716 152.03580408 -67.3359375 153 C-68.53595146 153.44452263 -68.53595146 153.44452263 -69.76020813 153.89802551 C-70.50417343 154.1664476 -71.24813873 154.43486969 -72.01464844 154.71142578 C-72.66173767 154.94773712 -73.3088269 155.18404846 -73.9755249 155.42752075 C-75.8515625 155.9296875 -75.8515625 155.9296875 -79.8515625 155.9296875 C-81.47420904 150.99160243 -83.09131752 146.05174623 -84.70385742 141.11035156 C-85.25028165 139.43833495 -85.79807836 137.76676609 -86.34741211 136.09570312 C-91.7674606 119.60206335 -96.75081151 103.20094097 -99.73730469 86.0769043 C-100.10625818 83.96531325 -100.48970939 81.85671229 -100.875 79.74804688 C-105.47455365 54.2285185 -108.7588964 21.40232476 -94.21875 -1.66015625 C-86.31414204 -12.31188133 -75.80678012 -19.07926898 -62.7265625 -21.6953125 C-39.50423073 -23.94263493 -17.81576065 -14.55823071 0 0 Z " fill="#F6F6F7" transform="translate(382.8515625,330.0703125)"/>
<path d="M0 0 C14.30731974 11.89766589 19.67690083 27.22663825 21.6875 45.25 C24.37253362 79.19320403 15.32136021 112.5693108 6 144.875 C5.81386139 145.5207196 5.62772278 146.16643921 5.4359436 146.83172607 C3.13981059 154.7534802 0.62127143 162.54080515 -2.3125 170.25 C-52.32515004 154.03109055 -102.88039992 135.32084117 -142.1796875 99.19921875 C-144.81870497 96.78736945 -147.54279213 94.50949853 -150.3125 92.25 C-148.83164573 87.75723875 -146.32290107 84.43346348 -143.375 80.8125 C-142.37472902 79.56401914 -141.37473669 78.31531499 -140.375 77.06640625 C-139.86453125 76.43234863 -139.3540625 75.79829102 -138.828125 75.14501953 C-137.39003074 73.3469384 -135.97205406 71.535348 -134.5625 69.71484375 C-128.06822958 61.33137391 -121.29614086 53.22952547 -114.3125 45.25 C-113.55324219 44.37730469 -112.79398438 43.50460937 -112.01171875 42.60546875 C-102.59425246 31.94840909 -92.6357002 21.88529183 -81.3125 13.25 C-80.78575684 12.84152832 -80.25901367 12.43305664 -79.71630859 12.01220703 C-71.10199672 5.3736317 -62.38707171 0.34279476 -52.3125 -3.75 C-51.301875 -4.18441406 -50.29125 -4.61882812 -49.25 -5.06640625 C-33.19495598 -11.06614275 -14.16827034 -9.73558692 0 0 Z " fill="#F6F6F7" transform="translate(723.3125,315.75)"/>
<path d="M0 0 C1.25079346 -0.02618408 2.50158691 -0.05236816 3.7902832 -0.0793457 C16.20047194 -0.10135103 27.39249356 2.60851436 37.875 9.375 C37.02930883 11.00442694 36.1727978 12.62823757 35.3125 14.25 C34.83683594 15.15492188 34.36117187 16.05984375 33.87109375 16.9921875 C31.12876664 21.6396538 27.99559136 25.97606939 24.875 30.375 C23.75285932 31.99316523 22.63301943 33.6129287 21.515625 35.234375 C0.74224487 65.25113698 -23.09341569 95.24018657 -52.52783203 117.14941406 C-55.2787392 119.26032112 -57.87874863 121.54427103 -60.5 123.8125 C-78.56827186 139.28034813 -98.43297545 152.69347699 -119.125 164.375 C-120.23560791 165.00245117 -120.23560791 165.00245117 -121.36865234 165.64257812 C-124.25506435 167.27065121 -127.14195682 168.89761261 -130.0378418 170.50878906 C-132.80523075 172.05015578 -135.48742264 173.61661509 -138.125 175.375 C-141.75241042 175.03882416 -144.29917852 173.90402156 -147.34765625 171.96875 C-148.51711792 171.23096313 -148.51711792 171.23096313 -149.71020508 170.47827148 C-150.5277124 169.94919189 -151.34521973 169.4201123 -152.1875 168.875 C-153.03658936 168.33109619 -153.88567871 167.78719238 -154.76049805 167.22680664 C-161.45987471 162.89453882 -167.85288345 158.30917864 -174.125 153.375 C-175.22845577 152.52641853 -176.33265506 151.67880325 -177.4375 150.83203125 C-183.85183117 145.88857102 -190.10709454 140.77714699 -196.25 135.5 C-197.19129761 134.6970752 -197.19129761 134.6970752 -198.15161133 133.87792969 C-201.53224552 130.94224899 -204.44259315 127.99157839 -207.125 124.375 C-203.27938738 120.29313814 -199.26366839 116.61956378 -194.875 113.125 C-189.78762502 109.03556003 -185.23252608 104.58052094 -180.671875 99.9296875 C-177.97519003 97.22473049 -175.17726338 94.71932876 -172.2734375 92.2421875 C-170.09254262 90.34679159 -167.97044254 88.3947348 -165.8527832 86.42919922 C-160.6583692 81.60940217 -155.33911634 77.03534401 -149.81640625 72.58984375 C-145.45340573 68.99939194 -141.28751677 65.19440259 -137.125 61.375 C-136.26648438 61.78878906 -135.40796875 62.20257812 -134.5234375 62.62890625 C-131.08311206 63.75646619 -131.08311206 63.75646619 -128.0390625 61.83984375 C-126.92589541 61.01974011 -125.8303986 60.17531506 -124.75 59.3125 C-124.14986084 58.85713867 -123.54972168 58.40177734 -122.93139648 57.93261719 C-120.97714665 56.43604477 -119.05064006 54.908159 -117.125 53.375 C-116.47644043 52.8692041 -115.82788086 52.3634082 -115.15966797 51.84228516 C-104.15817173 43.26019382 -93.83677491 33.97834925 -83.90234375 24.18359375 C-63.28625377 4.61800517 -26.88819003 0.3368212 0 0 Z " fill="#8266FD" transform="translate(720.125,614.625)"/>
<path d="M0 0 C3.37490093 1.44745751 5.38636493 3.26003854 7.875 5.9375 C13.2080594 11.38365854 19.04885656 15.95374456 25.10546875 20.55419922 C26.988614 21.99131084 28.85435511 23.44883415 30.71875 24.91015625 C48.1981813 38.48006932 67.27668781 49.07315485 87 59 C87.8259668 59.41717285 88.65193359 59.8343457 89.50292969 60.26416016 C93.99229628 62.52924123 98.49221999 64.77181976 103 67 C104.33376261 67.66580742 105.6673287 68.33201091 107 69 C104.35756977 70.76162015 102.1597142 71.81612383 99.23046875 72.9609375 C84.87136208 78.685062 71.35642161 85.22345814 58 93 C56.79754639 93.69826904 56.79754639 93.69826904 55.57080078 94.41064453 C38.27811028 104.53310736 22.36496305 116.16317272 7 129 C5.84769263 129.9596791 4.69535145 130.91931761 3.54296875 131.87890625 C2.70378906 132.57886719 1.86460937 133.27882813 1 134 C-3.22212657 132.58756197 -5.92613607 130.55949701 -9.25 127.625 C-16.7560871 121.16978889 -24.83759623 115.58638599 -33 110 C-33.65436035 109.55092285 -34.3087207 109.1018457 -34.98291016 108.63916016 C-57.64751835 93.14154684 -81.55429413 80.35160414 -107 70 C-104.0459526 67.63356009 -101.09199168 65.96728264 -97.66796875 64.36328125 C-96.62979004 63.87279297 -95.59161133 63.38230469 -94.52197266 62.87695312 C-93.42159668 62.36068359 -92.3212207 61.84441406 -91.1875 61.3125 C-58.33348622 45.68332951 -25.91641909 25.91641909 0 0 Z " fill="#F5F4F5" transform="translate(512,477)"/>
<path d="M0 0 C3.4055816 1.13519387 3.61243206 1.54656872 5.3125 4.5078125 C5.74256348 5.23983887 6.17262695 5.97186523 6.61572266 6.72607422 C7.07253418 7.51771973 7.5293457 8.30936523 8 9.125 C12.8031219 17.21810764 18.02199713 24.80824513 23.7109375 32.29785156 C24.94433454 33.9264963 26.16011142 35.56844011 27.375 37.2109375 C34.40165231 46.70179774 41.79496835 55.80281249 49.75 64.53125 C52.021257 67.02332365 54.25991865 69.54240848 56.5 72.0625 C64.11195208 80.49095905 72.10182985 87.94111642 81 95 C82.89588771 96.52076554 84.79172412 98.04159505 86.6875 99.5625 C88.12449468 100.70896699 89.56179506 101.8550516 91 103 C77.83985291 111.77343139 53.58240947 110.75986583 38.5625 107.8125 C21.12899819 103.46934588 5.41714098 94.54134503 -4.375 79.125 C-13.51967479 62.58506647 -16.36316229 42.8832389 -11.5 24.4375 C-8.8088672 16.61669891 -4.8817939 9.28391533 -1 2 C-0.67 1.34 -0.34 0.68 0 0 Z " fill="#F5F5F5" transform="translate(265,625)"/>
<path d="M0 0 C10.19282879 9.21616401 15.55267661 24.21236345 16.30859375 37.66015625 C16.9786544 56.72210023 12.19030359 73.71345413 -0.45703125 88.39453125 C-8.19325568 96.3208933 -16.65440442 101.26117083 -27 105 C-27.83144531 105.34933594 -28.66289063 105.69867187 -29.51953125 106.05859375 C-45.7730065 112.22723554 -66.66820469 109.64279255 -83 105 C-83.99 104.34 -84.98 103.68 -86 103 C-85.31679688 102.46117187 -84.63359375 101.92234375 -83.9296875 101.3671875 C-76.12025579 94.99580971 -68.8861267 88.10963527 -61.75 81 C-60.82815918 80.08718262 -59.90631836 79.17436523 -58.95654297 78.23388672 C-52.8769554 72.12812694 -47.36645724 65.73511891 -42 59 C-40.92714879 57.70633133 -39.85075449 56.41558595 -38.76953125 55.12890625 C-30.21240273 44.84729421 -22.51777511 34.05826378 -15 23 C-14.36723145 22.0706665 -14.36723145 22.0706665 -13.72167969 21.12255859 C-9.00500149 14.17326531 -4.47620482 7.10597516 0 0 Z " fill="#F5F4F6" transform="translate(757,625)"/>
<path d="M0 0 C4.77421603 4.31219512 4.77421603 4.31219512 5 8 C3.8598396 10.45119756 2.67822178 12.68171598 1.3125 15 C-7.86858219 31.32680167 -11.54317604 51.1521723 -7.05859375 69.6640625 C-5.99167491 73.24047615 -4.57957868 76.61768886 -3 80 C-2.62746094 80.84175781 -2.25492187 81.68351563 -1.87109375 82.55078125 C5.75791667 97.94171168 20.09822258 107.3883772 35.80859375 113.00390625 C44.09139542 115.61355609 52.30737867 116.20266582 60.9375 116.5625 C62.3925293 116.62727539 62.3925293 116.62727539 63.87695312 116.69335938 C66.25118601 116.79862093 68.62550921 116.90075707 71 117 C71 117.33 71 117.66 71 118 C70.29915283 117.98428955 69.59830566 117.9685791 68.8762207 117.95239258 C65.68839649 117.88987588 62.50070149 117.85095619 59.3125 117.8125 C58.20970703 117.78736328 57.10691406 117.76222656 55.97070312 117.73632812 C54.90400391 117.72666016 53.83730469 117.71699219 52.73828125 117.70703125 C51.75899658 117.6913208 50.77971191 117.67561035 49.77075195 117.65942383 C46.54370863 118.05608657 44.7193198 119.28433253 42 121 C39.875 120.25 39.875 120.25 38 119 C37.01 118.67 36.02 118.34 35 118 C35 117.34 35 116.68 35 116 C34.34 116 33.68 116 33 116 C33 115.34 33 114.68 33 114 C31.4188708 113.49307308 29.83498617 112.99473557 28.25 112.5 C27.36828125 112.2215625 26.4865625 111.943125 25.578125 111.65625 C22.79732471 110.83554715 22.79732471 110.83554715 19 111 C19 110.01 19 109.02 19 108 C18.01 107.505 18.01 107.505 17 107 C16.67 107.99 16.34 108.98 16 110 C15 108 15 108 15 105 C14.278125 104.566875 13.55625 104.13375 12.8125 103.6875 C10.23060462 102.13836277 9.11940206 101.10339369 7.3125 98.8125 C6.549375 97.884375 5.78625 96.95625 5 96 C4.34 96 3.68 96 3 96 C1.47551369 93.0173094 0.06059933 90.181798 -1 87 C-2.32 87 -3.64 87 -5 87 C-5 84.36 -5 81.72 -5 79 C-5.66 79 -6.32 79 -7 79 C-7.20496094 78.22914063 -7.40992188 77.45828125 -7.62109375 76.6640625 C-7.89050781 75.66117188 -8.15992188 74.65828125 -8.4375 73.625 C-8.70433594 72.62726563 -8.97117188 71.62953125 -9.24609375 70.6015625 C-9.90184356 68.04582299 -9.90184356 68.04582299 -11 66 C-11.144375 65.030625 -11.28875 64.06125 -11.4375 63.0625 C-11.82069364 59.84075833 -11.82069364 59.84075833 -14 57 C-13.34 57 -12.68 57 -12 57 C-12 56.01 -12 55.02 -12 54 C-12.66 53.34 -13.32 52.68 -14 52 C-13.9765625 48.9609375 -13.9765625 48.9609375 -13.625 45.375 C-13.51414063 44.18648437 -13.40328125 42.99796875 -13.2890625 41.7734375 C-13.14597656 40.40058594 -13.14597656 40.40058594 -13 39 C-11.515 38.505 -11.515 38.505 -10 38 C-8.15308406 33.00246275 -7.36173843 27.79131462 -6.46484375 22.55078125 C-5.86430848 19.25540701 -5.05951407 16.17854221 -4 13 C-2.35 12.67 -0.7 12.34 1 12 C1 10.68 1 9.36 1 8 C1.66 8 2.32 8 3 8 C2.505 7.236875 2.01 6.47375 1.5 5.6875 C0 3 0 3 0 0 Z " fill="#9871EE" transform="translate(261,617)"/>
<path d="M0 0 C0.33 0 0.66 0 1 0 C1.02717692 2.06242617 1.0464758 4.12495703 1.0625 6.1875 C1.07410156 7.33605469 1.08570313 8.48460937 1.09765625 9.66796875 C0.87922705 17.12077295 0.87922705 17.12077295 -2 20 C-2.04080783 21.99958364 -2.04254356 24.00045254 -2 26 C-2.33 26.33 -2.66 26.66 -3 27 C-4.23173979 34.18078089 -4.19136596 41.35506038 -4.1875 48.625 C-4.18814453 49.86797852 -4.18878906 51.11095703 -4.18945312 52.39160156 C-4.14119306 60.76033551 -3.72877709 68.78830883 -2 77 C-1.34 77 -0.68 77 0 77 C1.01333399 80.15259465 0.81126663 81.84507423 0 85 C-0.03888349 87.33300933 -0.0448635 89.66709801 0 92 C0.66 92 1.32 92 2 92 C2.12375 92.969375 2.2475 93.93875 2.375 94.9375 C2.684375 96.4534375 2.684375 96.4534375 3 98 C3.66 98.33 4.32 98.66 5 99 C5 101.31 5 103.62 5 106 C6.98 105.505 6.98 105.505 9 105 C8.80921875 105.71671875 8.6184375 106.4334375 8.421875 107.171875 C7.9514847 110.32523221 8.32436333 112.21899364 9.25 115.25 C9.62898438 116.55710937 9.62898438 116.55710937 10.015625 117.890625 C10.50289062 118.93476562 10.50289062 118.93476562 11 120 C12.485 120.495 12.485 120.495 14 121 C13.67 121.66 13.34 122.32 13 123 C14.485 123.495 14.485 123.495 16 124 C16 125.65 16 127.3 16 129 C16.66 129 17.32 129 18 129 C18.103125 129.639375 18.20625 130.27875 18.3125 130.9375 C18.539375 131.618125 18.76625 132.29875 19 133 C19.99 133.33 20.98 133.66 22 134 C22 135.32 22 136.64 22 138 C22.99 138.33 23.98 138.66 25 139 C25.96915844 140.77679047 26.93685607 142.55449908 27.8828125 144.34375 C29.47906973 146.71022925 31.29130134 147.32282534 34 148 C34 151 34 151 33 153 C21.25900697 140.94704822 13.03103108 127.19979595 6 112 C5.52820313 111.00742187 5.05640625 110.01484375 4.5703125 108.9921875 C-1.18661987 96.15530104 -4.36145007 81.92767439 -6 68 C-6.08540039 67.32428955 -6.17080078 66.6485791 -6.25878906 65.95239258 C-8.91105307 44.01892978 -6.64497575 21.04804501 0 0 Z " fill="#9670F0" transform="translate(168,620)"/>
<path d="M0 0 C0 3 0 3 -2.125 5.453125 C-3.07485144 6.39405686 -4.03379663 7.32586713 -5 8.25 C-5.50692383 8.7437915 -6.01384766 9.23758301 -6.53613281 9.74633789 C-18.96638399 21.77313728 -32.62733273 32.40206368 -47 42 C-48.32 41.34 -49.64 40.68 -51 40 C-49.46468997 35.87740827 -46.52253384 33.75199156 -43.125 31.1875 C-42.2131897 30.48669312 -42.2131897 30.48669312 -41.28295898 29.77172852 C-39.19499734 28.1726428 -37.09747566 26.58658163 -35 25 C-33.38405468 23.76570343 -31.7681716 22.53132535 -30.15234375 21.296875 C-20.32905368 13.82935366 -10.3750618 6.68091101 0 0 Z " fill="#F3F0F5" transform="translate(636,637)"/>
<path d="M0 0 C2.4375 0.75 2.4375 0.75 5 2 C5.33333333 3.33333333 5.66666667 4.66666667 6 6 C8.49034386 7.29660434 8.49034386 7.29660434 11 8 C11 8.66 11 9.32 11 10 C14.3 10.33 17.6 10.66 21 11 C20.67 11.99 20.34 12.98 20 14 C19.93245166 16.06599083 19.93245166 16.06599083 21 18 C22.96466413 19.06775224 24.96855359 20.06553465 27 21 C28.01868662 21.98095748 29.02351983 22.97702078 30 24 C30.99 24.33 31.98 24.66 33 25 C33 25.66 33 26.32 33 27 C34.32 27 35.64 27 37 27 C38.67225729 27.30404678 40.34080104 27.63128912 42 28 C42.495 29.98 42.495 29.98 43 32 C43.99 32 44.98 32 46 32 C46.4125 32.433125 46.825 32.86625 47.25 33.3125 C49.82261344 35.79323439 52.68704954 36.68732152 56 38 C56.33 37.01 56.66 36.02 57 35 C57 35.66 57 36.32 57 37 C57.99 37.33 58.98 37.66 60 38 C60.66 38.66 61.32 39.32 62 40 C67.41074453 42.40232649 72.07813393 43.12085441 78 43 C78.66 43.66 79.32 44.32 80 45 C82.57061311 45.64767793 82.57061311 45.64767793 85 46 C85 45.01 85 44.02 85 43 C85.66 43.33 86.32 43.66 87 44 C87.625 46.5625 87.625 46.5625 88 49 C88.928125 48.79375 89.85625 48.5875 90.8125 48.375 C94 48 94 48 97 50 C97.495 49.01 97.495 49.01 98 48 C98.33 48.66 98.66 49.32 99 50 C101.52733235 50.65555119 101.52733235 50.65555119 104 51 C104 51.33 104 51.66 104 52 C98.28369732 52.16680569 93.24646401 51.67539717 87.6875 50.375 C86.5262561 50.10659302 86.5262561 50.10659302 85.34155273 49.83276367 C58.55124703 43.44436834 33.79207493 32.32901374 13 14 C12.07960937 13.18917969 11.15921875 12.37835937 10.2109375 11.54296875 C7.78775687 9.38165923 5.37873139 7.21008998 3 5 C2.4121875 4.46117187 1.824375 3.92234375 1.21875 3.3671875 C0 2 0 2 0 0 Z M41 30 C42 32 42 32 42 32 Z " fill="#9771F1" transform="translate(202,773)"/>
<path d="M0 0 C0.6987693 1.76641683 1.38366583 3.53832664 2.0625 5.3125 C2.44535156 6.29863281 2.82820313 7.28476562 3.22265625 8.30078125 C4 11 4 11 3 14 C1.68 11.03 0.36 8.06 -1 5 C-2.65 5.33 -4.3 5.66 -6 6 C-6.33 6.99 -6.66 7.98 -7 9 C-7.66 9 -8.32 9 -9 9 C-9.0825 9.598125 -9.165 10.19625 -9.25 10.8125 C-10 13 -10 13 -12 14.4375 C-14.26189029 15.85272049 -14.26189029 15.85272049 -14.5 18.5625 C-14.665 19.366875 -14.83 20.17125 -15 21 C-17 22.1875 -17 22.1875 -19 23 C-19.33 23.66 -19.66 24.32 -20 25 C-20.66 25 -21.32 25 -22 25 C-22 25.99 -22 26.98 -22 28 C-22.7425 28.721875 -23.485 29.44375 -24.25 30.1875 C-27.07961969 33.08142923 -28.41665574 35.53396765 -30.08984375 39.14453125 C-31.1507254 41.30727281 -32.55850954 43.07801273 -34 45 C-34.70514846 47.14733927 -34.70514846 47.14733927 -35 49 C-35.99 49 -36.98 49 -38 49 C-37.67 49.99 -37.34 50.98 -37 52 C-37.99 52.99 -38.98 53.98 -40 55 C-39.67 55.66 -39.34 56.32 -39 57 C-39.5775 57.474375 -40.155 57.94875 -40.75 58.4375 C-44.3810186 62.57282673 -46.72757039 67.43916162 -47.3125 72.9375 C-47.09965507 75.05750404 -47.09965507 75.05750404 -46 77 C-46.99 77 -47.98 77 -49 77 C-49.268125 77.9075 -49.53625 78.815 -49.8125 79.75 C-50.89576294 82.71471963 -51.98359457 84.6169754 -54 87 C-51.87337223 68.15034477 -22.51009538 0 0 0 Z " fill="#A075F2" transform="translate(223,532)"/>
<path d="M0 0 C3.3943115 0.47520361 6.76340274 0.95268055 10.125 1.625 C13.09554503 2.01246239 15.09672223 1.59554416 18 1 C20.8125 1.4375 20.8125 1.4375 23 2 C23 2.99 23 3.98 23 5 C23.99 5.33 24.98 5.66 26 6 C26.33 5.34 26.66 4.68 27 4 C27.33 4.66 27.66 5.32 28 6 C29.97888961 6.72693904 31.97954558 7.39816251 34 8 C34 7.01 34 6.02 34 5 C34.99 4.67 35.98 4.34 37 4 C37 4.99 37 5.98 37 7 C39.78915389 8.39457694 41.90273264 8.1821922 45 8 C47.78566059 7.08742694 47.78566059 7.08742694 50 6 C50.495 6.99 50.495 6.99 51 8 C56.63475287 9.76985024 61.80636336 10.33877854 67.6875 10.3125 C68.78674805 10.33666992 68.78674805 10.33666992 69.90820312 10.36132812 C74.54334951 10.3655077 77.20435087 9.59198382 81 7 C81.99 7 82.98 7 84 7 C84 7.66 84 8.32 84 9 C87.46941546 8.54177532 90.67395049 8.10868317 94 7 C96.56634861 6.77281504 99.11678107 6.58391816 101.6875 6.4375 C102.7403418 6.37272461 102.7403418 6.37272461 103.81445312 6.30664062 C105.54275206 6.2008264 107.2713511 6.09993419 109 6 C105.51753882 8.32164078 102.34728546 8.86224798 98.3125 9.5625 C97.62994141 9.68818359 96.94738281 9.81386719 96.24414062 9.94335938 C94.1659219 10.31818447 92.08481528 10.66395579 90 11 C88.83855469 11.18820312 87.67710937 11.37640625 86.48046875 11.5703125 C58.91936472 14.81814073 31.85095986 10.49499986 5.28515625 3.3671875 C4.07678101 3.04403564 4.07678101 3.04403564 2.84399414 2.71435547 C1 2 1 2 0 0 Z " fill="#A37BF1" transform="translate(634,814)"/>
<path d="M0 0 C1.88332031 0.25716797 1.88332031 0.25716797 3.8046875 0.51953125 C17.72114036 2.72510405 30.97392431 7.73642578 44 13 C43.67 13.99 43.34 14.98 43 16 C42.34 15.67 41.68 15.34 41 15 C39.19365032 14.11237277 37.38018207 13.23918351 35.5625 12.375 C34.59441406 11.90835938 33.62632812 11.44171875 32.62890625 10.9609375 C29.94755166 9.67153739 29.94755166 9.67153739 27 11 C27 10.34 27 9.68 27 9 C26.26136719 8.81824219 25.52273438 8.63648438 24.76171875 8.44921875 C23.74722656 8.19785156 22.73273438 7.94648438 21.6875 7.6875 C20.02847656 7.27757812 20.02847656 7.27757812 18.3359375 6.859375 C15.46704276 6.12031547 12.64796789 5.29250262 9.8125 4.4375 C-4.4821545 0.57407987 -19.12596225 0.74552888 -33.81787109 0.96826172 C-35.54509711 0.9933836 -37.2725913 1 -39 1 C-45.77921912 1.49638449 -52.32046265 2.80173991 -58.9375 4.3125 C-59.86240234 4.51294922 -60.78730469 4.71339844 -61.74023438 4.91992188 C-71.91637796 7.22328163 -80.975301 11.37830108 -90.3125 15.92578125 C-91.199375 16.28027344 -92.08625 16.63476562 -93 17 C-93.66 16.67 -94.32 16.34 -95 16 C-64.81447951 0.01476379 -33.76197766 -5.11121115 0 0 Z " fill="#D7B2F4" transform="translate(353,219)"/>
<path d="M0 0 C1.48323628 2.37648638 2.02994748 3.64232539 1.79296875 6.47265625 C1.49326172 7.75462891 1.49326172 7.75462891 1.1875 9.0625 C0.99542969 9.91972656 0.80335938 10.77695312 0.60546875 11.66015625 C0.13985018 13.45954674 -0.41224097 15.2367229 -1 17 C-0.79744981 19.05030395 -0.43075219 21.03673034 -0.05859375 23.0625 C0 25 0 25 -2 28 C-3.28771496 36.13933039 -3.09447788 44.58751421 -3.125 52.8125 C-3.12967285 53.68310059 -3.1343457 54.55370117 -3.13916016 55.45068359 C-3.12687825 60.42107744 -2.8421765 65.26255204 -2.21435547 70.1940918 C-2 72 -2 72 -2 74 C-1.34 74.33 -0.68 74.66 0 75 C-0.33 76.98 -0.66 78.96 -1 81 C-1.33 80.34 -1.66 79.68 -2 79 C-2.66 79 -3.32 79 -4 79 C-4.74358295 72.48635709 -5.16862642 66.05867797 -5.203125 59.50390625 C-5.20882507 58.63088364 -5.21452515 57.75786102 -5.22039795 56.85838318 C-5.22977533 55.02059105 -5.2363527 53.18278266 -5.24023438 51.3449707 C-5.24986801 48.60010621 -5.28093203 45.85601548 -5.3125 43.11132812 C-5.40093397 28.32540049 -3.72076991 14.31042043 0 0 Z " fill="#D9B0F7" transform="translate(192,326)"/>
<path d="M0 0 C1.65 0 3.3 0 5 0 C4.67 0.66 4.34 1.32 4 2 C5.82337891 2.18175781 5.82337891 2.18175781 7.68359375 2.3671875 C9.26828117 2.53597078 10.8529139 2.70526816 12.4375 2.875 C13.64116211 2.99294922 13.64116211 2.99294922 14.86914062 3.11328125 C16.92170994 3.33845763 18.96293009 3.66222587 21 4 C21.495 4.99 21.495 4.99 22 6 C23.175625 6.103125 24.35125 6.20625 25.5625 6.3125 C30.62706342 6.81986235 33.92167894 9.11328715 38 12 C39.16499458 12.77335811 40.33148936 13.54446484 41.5 14.3125 C42.325 14.869375 43.15 15.42625 44 16 C43.34 16.33 42.68 16.66 42 17 C39.74892029 15.98357622 37.60976767 14.91500395 35.4375 13.75 C30.06791086 10.97106817 24.86023489 8.57604802 19 7 C17.948125 6.69449219 17.948125 6.69449219 16.875 6.3828125 C3.26852494 2.83541007 -9.38769572 5.57352959 -22 11 C-23.6650558 11.67067982 -25.33130425 12.33842859 -27 13 C-26.67 12.01 -26.34 11.02 -26 10 C-24.35 9.67 -22.7 9.34 -21 9 C-20.67 8.01 -20.34 7.02 -20 6 C-17.05078125 5.05078125 -17.05078125 5.05078125 -13.3125 4.3125 C-12.09175781 4.06113281 -10.87101562 3.80976563 -9.61328125 3.55078125 C-6.33347937 3.05083307 -3.30915434 2.89325309 0 3 C0 2.01 0 1.02 0 0 Z " fill="#D2AAF3" transform="translate(326,304)"/>
<path d="M0 0 C0.33 0 0.66 0 1 0 C1.02717692 2.06242617 1.0464758 4.12495703 1.0625 6.1875 C1.07410156 7.33605469 1.08570313 8.48460937 1.09765625 9.66796875 C0.87922705 17.12077295 0.87922705 17.12077295 -2 20 C-2.04080783 21.99958364 -2.04254356 24.00045254 -2 26 C-2.33 26.33 -2.66 26.66 -3 27 C-4.36368961 34.91950114 -4.33969866 42.98460815 -4.5625 51 C-4.60577365 52.45704157 -4.6493905 53.91407299 -4.69335938 55.37109375 C-4.79953302 58.91395412 -4.90105111 62.45692963 -5 66 C-5.33 66 -5.66 66 -6 66 C-9.55837409 44.39148638 -6.55350409 20.75830737 0 0 Z " fill="#A27CEE" transform="translate(168,620)"/>
<path d="M0 0 C0.66 0 1.32 0 2 0 C3.4453125 1.46875 3.4453125 1.46875 5.125 3.5 C11.02069281 10.42103069 17.55381017 17.7166724 25 23 C25.99 23 26.98 23 28 23 C28.66 24.32 29.32 25.64 30 27 C30.99 26.67 31.98 26.34 33 26 C33.495 27.98 33.495 27.98 34 30 C36.64 30.66 39.28 31.32 42 32 C42 32.66 42 33.32 42 34 C37.98575974 37.0106802 33.80489167 37.97810075 29 39 C28.154375 39.20625 27.30875 39.4125 26.4375 39.625 C23.27510549 40.11152223 20.19374878 40.06262253 17 40 C17 39.67 17 39.34 17 39 C18.20398438 38.72285156 19.40796875 38.44570313 20.6484375 38.16015625 C22.22398907 37.79440321 23.79950823 37.42851055 25.375 37.0625 C26.56609375 36.78889648 26.56609375 36.78889648 27.78125 36.50976562 C28.54179687 36.33251953 29.30234375 36.15527344 30.0859375 35.97265625 C30.7876709 35.81031494 31.4894043 35.64797363 32.21240234 35.48071289 C34.08394574 35.0411926 34.08394574 35.0411926 36 34 C35.16339844 33.36835937 34.32679688 32.73671875 33.46484375 32.0859375 C24.10977735 24.9300656 15.45248733 17.19663587 7 9 C6.34112793 8.37029297 5.68225586 7.74058594 5.00341797 7.09179688 C4.36162598 6.46853516 3.71983398 5.84527344 3.05859375 5.203125 C2.47263428 4.63754883 1.8866748 4.07197266 1.28295898 3.48925781 C0 2 0 2 0 0 Z " fill="#A47DEF" transform="translate(319,694)"/>
<path d="M0 0 C-0.66 1.32 -1.32 2.64 -2 4 C-1.44570313 4.20496094 -0.89140625 4.40992188 -0.3203125 4.62109375 C0.76636719 5.02521484 0.76636719 5.02521484 1.875 5.4375 C2.95394531 5.83775391 2.95394531 5.83775391 4.0546875 6.24609375 C6 7 6 7 8 8 C8 8.66 8 9.32 8 10 C8.928125 10.309375 9.85625 10.61875 10.8125 10.9375 C12.875 11.625 14.9375 12.3125 17 13 C17.680625 13.165 18.36125 13.33 19.0625 13.5 C21 14 21 14 23 15 C23.33 14.34 23.66 13.68 24 13 C24.185625 13.763125 24.37125 14.52625 24.5625 15.3125 C26.61299014 19.14602505 28.94387385 19.69378988 33 21 C35.79340157 21.25390222 35.79340157 21.25390222 38 21 C38 21.66 38 22.32 38 23 C40.64 23.99 43.28 24.98 46 26 C40.95909042 27.68030319 36.6403558 24.8116107 31.875 22.875 C30.77873291 22.43430176 29.68246582 21.99360352 28.55297852 21.53955078 C16.28924891 16.48469915 4.64024628 10.34486993 -7 4 C-2.25 0 -2.25 0 0 0 Z " fill="#A17BEE" transform="translate(587,787)"/>
<path d="M0 0 C1.26825914 3.80477742 0.50458645 5.22075746 -0.765625 8.98828125 C-1.16136719 10.16970703 -1.55710937 11.35113281 -1.96484375 12.56835938 C-2.38894531 13.80392578 -2.81304688 15.03949219 -3.25 16.3125 C-3.65863281 17.53646484 -4.06726563 18.76042969 -4.48828125 20.02148438 C-6.36202166 25.56136961 -8.29077009 30.80535885 -11 36 C-16.72554976 31.74093983 -22.37992202 27.39719064 -28 23 C-27.34 22.67 -26.68 22.34 -26 22 C-23.875 22.9375 -23.875 22.9375 -22 24 C-22 24.66 -22 25.32 -22 26 C-21.4225 26.28875 -20.845 26.5775 -20.25 26.875 C-18.82490254 27.58754873 -17.40707481 28.31499151 -16 29.0625 C-14.01065256 29.99500661 -12.14321257 30.54074016 -10 31 C-10.20625 30.4225 -10.4125 29.845 -10.625 29.25 C-11.08661261 26.48032433 -10.42944945 25.35438733 -9 23 C-8.34 23 -7.68 23 -7 23 C-7.33 21.68 -7.66 20.36 -8 19 C-7.34 19 -6.68 19 -6 19 C-5.663389 17.22978678 -5.33082707 15.45880326 -5 13.6875 C-4.814375 12.70136719 -4.62875 11.71523438 -4.4375 10.69921875 C-3.92000204 7.96218195 -3.92000204 7.96218195 -4 5 C-3.01 5 -2.02 5 -1 5 C-0.67 3.35 -0.34 1.7 0 0 Z " fill="#7B5EEC" transform="translate(813,496)"/>
<path d="M0 0 C0.495 0.99 0.495 0.99 1 2 C4.3 2 7.6 2 11 2 C11 2.33 11 2.66 11 3 C-5.33255934 5.88524708 -23.59726521 8.67698322 -40 5 C-40 4.67 -40 4.34 -40 4 C-38.0852312 3.63571223 -36.16807707 3.28394694 -34.25 2.9375 C-33.18265625 2.74027344 -32.1153125 2.54304687 -31.015625 2.33984375 C-28.11482684 2.01294033 -26.74172158 2.29431659 -24 3 C-21.17689804 3.09531824 -18.38461022 3.13946 -15.5625 3.125 C-14.81162109 3.12886719 -14.06074219 3.13273438 -13.28710938 3.13671875 C-9.37977206 3.12984569 -5.82311353 2.90039683 -2 2 C-1.34 2 -0.68 2 0 2 C0 1.34 0 0.68 0 0 Z " fill="#9E78ED" transform="translate(349,821)"/>
<path d="M0 0 C4.77421603 4.31219512 4.77421603 4.31219512 5 8 C3.85983267 10.45121245 2.67779603 12.68146733 1.3125 15 C-4.04822474 24.56674239 -7.1806562 34.17969212 -9 45 C-9.33 45 -9.66 45 -10 45 C-10.21022638 39.8494537 -9.47396776 35.91322585 -8 31 C-7.44438823 28.18996351 -6.94804154 25.37409396 -6.46484375 22.55078125 C-5.86430848 19.25540701 -5.05951407 16.17854221 -4 13 C-2.35 12.67 -0.7 12.34 1 12 C1 10.68 1 9.36 1 8 C1.66 8 2.32 8 3 8 C2.505 7.236875 2.01 6.47375 1.5 5.6875 C0 3 0 3 0 0 Z " fill="#916AEE" transform="translate(261,617)"/>
<path d="M0 0 C-9.02102806 3.66116577 -18.04828691 7.18796171 -27.375 10 C-28.08132568 10.21938232 -28.78765137 10.43876465 -29.51538086 10.66479492 C-32.97398281 11.67273035 -35.58145196 12.40248125 -39 11 C-38.01 11 -37.02 11 -36 11 C-36 9.68 -36 8.36 -36 7 C-34.0085944 6.61866701 -32.00720923 6.28674418 -30 6 C-29.67 6.33 -29.34 6.66 -29 7 C-27.08575543 6.8981629 -27.08575543 6.8981629 -24.9375 6.5625 C-22.9884375 6.2840625 -22.9884375 6.2840625 -21 6 C-21 5.34 -21 4.68 -21 4 C-16.71 3.34 -12.42 2.68 -8 2 C-8 1.34 -8 0.68 -8 0 C-4.90645403 -0.99435406 -3.09720845 -0.87840996 0 0 Z " fill="#A17AF1" transform="translate(409,809)"/>
<path d="M0 0 C0.99 0 1.98 0 3 0 C3 0.66 3 1.32 3 2 C2.2575 2.70125 1.515 3.4025 0.75 4.125 C-2.48088647 7.50274495 -4.07476422 10.79877698 -6 15 C-6.66147359 16.33591725 -7.32810974 17.66929128 -8 19 C-8.49306641 19.99 -8.49306641 19.99 -8.99609375 21 C-9.66747393 22.33753562 -10.34723984 23.67089358 -11.03515625 25 C-14.00216691 30.77608158 -16.31817044 36.55343513 -18.0625 42.8125 C-19 46 -19 46 -21 49 C-20.4708918 43.50214012 -19.44893347 38.66316065 -17.4375 33.5 C-17.17646484 32.81929443 -16.91542969 32.13858887 -16.64648438 31.43725586 C-7.34038471 7.7950988 -7.34038471 7.7950988 0 0 Z " fill="#D8B2F5" transform="translate(214,277)"/>
<path d="M0 0 C0.66 0 1.32 0 2 0 C1.72285156 1.134375 1.44570313 2.26875 1.16015625 3.4375 C0.79404291 4.95827848 0.42817037 6.47911495 0.0625 8 C-0.11990234 8.74378906 -0.30230469 9.48757813 -0.49023438 10.25390625 C-2.91449092 20.39170635 -3.12707681 30.12384615 -3.0625 40.5 C-3.05747533 41.90885258 -3.05291413 43.31770689 -3.04882812 44.7265625 C-3.0371003 48.15108638 -3.02068691 51.57552047 -3 55 C-4.485 55.495 -4.485 55.495 -6 56 C-6.56996892 27.73831025 -6.56996892 27.73831025 -4.6875 16.1875 C-4.56979248 15.46199951 -4.45208496 14.73649902 -4.33081055 13.98901367 C-3.4264074 9.08047117 -1.85168951 4.63181719 0 0 Z " fill="#CEA5F3" transform="translate(283,336)"/>
<path d="M0 0 C-0.66 0 -1.32 0 -2 0 C-2.33 0.99 -2.66 1.98 -3 3 C-3.66 3 -4.32 3 -5 3 C-5.33 3.66 -5.66 4.32 -6 5 C-10.1444526 4.88093074 -14.28870716 4.75663609 -18.43286133 4.62768555 C-19.84004557 4.58461342 -21.24727282 4.54292136 -22.65454102 4.50268555 C-24.68779408 4.4443043 -26.72083617 4.38081315 -28.75390625 4.31640625 C-29.97408447 4.27974854 -31.1942627 4.24309082 -32.45141602 4.20532227 C-36.01401411 3.99918914 -39.47640588 3.55531685 -43 3 C-43 2.67 -43 2.34 -43 2 C-42.30551758 2.01047363 -41.61103516 2.02094727 -40.89550781 2.03173828 C-37.68037693 2.07388819 -34.4653045 2.09951061 -31.25 2.125 C-30.15816406 2.14175781 -29.06632813 2.15851562 -27.94140625 2.17578125 C-19.43762909 2.22609946 -7.60134638 -2.28040391 0 0 Z " fill="#A47EEC" transform="translate(731,731)"/>
<path d="M0 0 C0.43570313 0.37511719 0.87140625 0.75023437 1.3203125 1.13671875 C2.56371597 2.2051845 3.81137827 3.2687074 5.0625 4.328125 C6.27416507 5.3736747 7.46581868 6.44342355 8.625 7.546875 C10.28046053 9.13970959 10.28046053 9.13970959 13 11 C15.80485127 10.9593157 15.80485127 10.9593157 18 10 C18.061875 9.05125 18.12375 8.1025 18.1875 7.125 C18.455625 6.09375 18.72375 5.0625 19 4 C21.5625 2.625 21.5625 2.625 24 2 C24 6.03381023 22.40426438 7.49433637 20 10.6875 C18.88625 12.17830078 18.88625 12.17830078 17.75 13.69921875 C16.88375 14.83810547 16.88375 14.83810547 16 16 C11.71357676 14.33536962 8.91382783 11.20924163 5.75 8 C5.19570313 7.4534375 4.64140625 6.906875 4.0703125 6.34375 C0 2.2533867 0 2.2533867 0 0 Z " fill="#8A63F3" transform="translate(558,390)"/>
<path d="M0 0 C0.66 0.33 1.32 0.66 2 1 C-0.49318219 3.05320886 -2.94980062 4.96847946 -5.6875 6.6875 C-11.32448549 10.35227647 -16.25918893 15.25918893 -21 20 C-24.55580747 23.14417459 -28.14547111 26.2247392 -32 29 C-30.35910008 24.87288809 -27.40169464 22.01892251 -24.3125 18.9375 C-23.74813232 18.37256836 -23.18376465 17.80763672 -22.60229492 17.22558594 C-16.00781047 10.79571623 -8.28259597 4.14129798 0 0 Z " fill="#DAB4F6" transform="translate(256,236)"/>
<path d="M0 0 C1.1875 1.5 1.1875 1.5 2 4 C1.34267783 5.93910039 0.6699169 7.87649613 -0.12890625 9.76171875 C-1.54406452 13.39797746 -2.24848849 17.18055328 -3 21 C-2.01 21 -1.02 21 0 21 C-0.125 22.75 -0.125 22.75 -1 25 C-4.0625 27.25 -4.0625 27.25 -7 29 C-6.35180847 22.68749842 -5.07063096 16.70591082 -3.5 10.5625 C-3.16162109 9.19834961 -3.16162109 9.19834961 -2.81640625 7.80664062 C-1.13139205 1.13139205 -1.13139205 1.13139205 0 0 Z " fill="#906CEC" transform="translate(738,427)"/>
<path d="M0 0 C0.33 0 0.66 0 1 0 C1.57606005 9.74158691 2.06849317 19.42123133 1.96875 29.18359375 C2.01306437 33.17742677 2.48091002 37.04193891 3 41 C3 41.66 3 42.32 3 43 C3.66 43.33 4.32 43.66 5 44 C4.67 45.98 4.34 47.96 4 50 C3.67 49.34 3.34 48.68 3 48 C2.34 48 1.68 48 1 48 C-0.29670966 38.1368383 -0.11124302 28.30202131 -0.0625 18.375 C-0.0574755 16.589845 -0.05291428 14.80468864 -0.04882812 13.01953125 C-0.03789651 8.6796533 -0.0206841 4.33984198 0 0 Z " fill="#D1A8F4" transform="translate(187,357)"/>
<path d="M0 0 C3.62484999 -0.08681476 7.24943443 -0.14032721 10.875 -0.1875 C12.42380859 -0.22520508 12.42380859 -0.22520508 14.00390625 -0.26367188 C14.99003906 -0.27333984 15.97617187 -0.28300781 16.9921875 -0.29296875 C17.90339355 -0.3086792 18.81459961 -0.32438965 19.75341797 -0.34057617 C20.49479004 -0.22818604 21.23616211 -0.1157959 22 0 C22.66 0.99 23.32 1.98 24 3 C21.36 3 18.72 3 16 3 C16 3.33 16 3.66 16 4 C11.05 4 6.1 4 1 4 C1.33 3.34 1.66 2.68 2 2 C1.34 1.34 0.68 0.68 0 0 Z " fill="#B084F6" transform="translate(683,304)"/>
<path d="M0 0 C0.66 0.33 1.32 0.66 2 1 C-23.25183824 20 -23.25183824 20 -28 20 C-27 17 -27 17 -26 15 C-25.09894531 14.86335937 -24.19789063 14.72671875 -23.26953125 14.5859375 C-19.61254856 13.93056426 -17.68369309 12.78007667 -14.6875 10.625 C-13.39392578 9.71621094 -13.39392578 9.71621094 -12.07421875 8.7890625 C-9.7452673 7.08886953 -9.7452673 7.08886953 -9 4 C-8.01 4.33 -7.02 4.66 -6 5 C-6 4.34 -6 3.68 -6 3 C-4.03533587 1.93224776 -2.03144641 0.93446535 0 0 Z " fill="#A67FF0" transform="translate(474,769)"/>
<path d="M0 0 C0 7.57869139 -11.61089288 15.72719205 -16.73828125 20.87109375 C-18.74036118 22.75560767 -20.76256175 24.40768125 -23 26 C-23.66 25.67 -24.32 25.34 -25 25 C-24.01 23.515 -24.01 23.515 -23 22 C-22.34 22 -21.68 22 -21 22 C-20.67 21.34 -20.34 20.68 -20 20 C-18.87453827 19.03813922 -17.7253742 18.10377718 -16.5625 17.1875 C-13.51100712 14.65699371 -12.38455728 12.72765421 -11 9 C-9.67696283 8.6278958 -8.34262065 8.29369827 -7 8 C-5.71563266 6.0162233 -5.71563266 6.0162233 -5 4 C-4.34 4 -3.68 4 -3 4 C-3 3.34 -3 2.68 -3 2 C-2.01 1.34 -1.02 0.68 0 0 Z " fill="#A37DF1" transform="translate(828,765)"/>
<path d="M0 0 C0.33 0 0.66 0 1 0 C2.01085227 5.05426133 1.93580875 8.21741367 0 13 C0 13.33 0 13.66 0 14 C0 14.66 0 15.32 0 16 C1.423125 16.433125 1.423125 16.433125 2.875 16.875 C6 18 6 18 8 20 C3.39146203 19.27991594 -0.67237409 17.68704061 -5 16 C-4.54548816 14.26982492 -4.08621143 12.54090123 -3.625 10.8125 C-3.36976563 9.84957031 -3.11453125 8.88664062 -2.8515625 7.89453125 C-2.05233704 5.17789793 -1.0968638 2.60862825 0 0 Z " fill="#8464EE" transform="translate(726,470)"/>
<path d="M0 0 C3.41355521 2.71046473 4.57245396 6.42694962 6.0625 10.375 C6.31837891 11.035 6.57425781 11.695 6.83789062 12.375 C7.56360975 14.24806427 8.28198772 16.12396792 9 18 C9.38800781 18.92425781 9.77601563 19.84851563 10.17578125 20.80078125 C11.12066873 23.3219739 11.1526155 25.32922878 11 28 C10.01 28 9.02 28 8 28 C7.34 26.35 6.68 24.7 6 23 C5.67 23 5.34 23 5 23 C4.875 18.25 4.875 18.25 6 16 C5.0888399 13.60930341 4.1273027 11.32066408 3.0625 9 C0 2.23669623 0 2.23669623 0 0 Z " fill="#B089F3" transform="translate(843,588)"/>
<path d="M0 0 C1.13998645 3.41995934 0.92767974 3.82065503 -0.4765625 6.94921875 C-0.81816406 7.71556641 -1.15976562 8.48191406 -1.51171875 9.27148438 C-1.87910156 10.06876953 -2.24648438 10.86605469 -2.625 11.6875 C-3.14126953 12.85442383 -3.14126953 12.85442383 -3.66796875 14.04492188 C-6.04890966 19.31198489 -8.81469123 24.17901449 -12 29 C-13.0625 27.125 -13.0625 27.125 -14 25 C-13.67 24.34 -13.34 23.68 -13 23 C-12.01 23 -11.02 23 -10 23 C-8.33477494 19.02907871 -6.99311902 14.98882845 -5.68359375 10.890625 C-5 9 -5 9 -4 8 C-4.40929986 5.94603274 -4.40929986 5.94603274 -5 4 C-4.34 4.33 -3.68 4.66 -3 5 C-2.01 3.35 -1.02 1.7 0 0 Z " fill="#A883F0" transform="translate(853,721)"/>
<path d="M0 0 C0.33 0 0.66 0 1 0 C1.33 2.64 1.66 5.28 2 8 C2.33 5.36 2.66 2.72 3 0 C3.33 0 3.66 0 4 0 C4.26887016 6.21388819 3.85997426 12.27319973 3.125 18.4375 C3.04652832 19.13552734 2.96805664 19.83355469 2.88720703 20.55273438 C2.44257057 24.05862036 1.99606761 26.00589858 0 29 C0 19.43 0 9.86 0 0 Z " fill="#9570EB" transform="translate(832,395)"/>
<path d="M0 0 C0.66 0.33 1.32 0.66 2 1 C-3.99898297 5.58398944 -10.30292918 9.42396421 -16.9375 13 C-18.05596313 13.61476196 -18.05596313 13.61476196 -19.19702148 14.24194336 C-20.25771851 14.8028064 -20.25771851 14.8028064 -21.33984375 15.375 C-21.97269287 15.71273437 -22.60554199 16.05046875 -23.25756836 16.3984375 C-25 17 -25 17 -28 16 C-27.360625 15.896875 -26.72125 15.79375 -26.0625 15.6875 C-25.0415625 15.3471875 -25.0415625 15.3471875 -24 15 C-23.67 14.01 -23.34 13.02 -23 12 C-22.29875 11.896875 -21.5975 11.79375 -20.875 11.6875 C-17.60862353 10.90640997 -14.9528148 9.57941257 -12 8 C-12 7.01 -12 6.02 -12 5 C-11.319375 5.103125 -10.63875 5.20625 -9.9375 5.3125 C-5.72577459 4.86444411 -3.23080948 2.60699324 0 0 Z " fill="#A17DEE" transform="translate(796,795)"/>
<path d="M0 0 C0.66 0.33 1.32 0.66 2 1 C3.01631395 5.30814844 3.10751104 9.46391815 3.0625 13.875 C3.05347656 15.02742187 3.04445312 16.17984375 3.03515625 17.3671875 C3.02355469 18.23601563 3.01195312 19.10484375 3 20 C2.54625 19.38125 2.0925 18.7625 1.625 18.125 C0.02891081 15.94080167 0.02891081 15.94080167 -2 14 C-2.01171875 10.99609375 -2.01171875 10.99609375 -1.6875 7.4375 C-1.58824219 6.26058594 -1.48898438 5.08367188 -1.38671875 3.87109375 C-1 1 -1 1 0 0 Z " fill="#A27EFB" transform="translate(249,655)"/>
<path d="M0 0 C0.33 0 0.66 0 1 0 C0.54400908 7.37402453 -0.9261373 14.06657659 -3.0625 21.125 C-3.34416016 22.08148438 -3.62582031 23.03796875 -3.91601562 24.0234375 C-4.60277485 26.35143487 -5.29749946 28.67671433 -6 31 C-7.32116319 26.71477943 -6.29873766 23.39663207 -5.125 19.1875 C-3.74597495 14.12314939 -2.71956705 9.21199914 -2 4 C-0.9375 1.5625 -0.9375 1.5625 0 0 Z " fill="#8462E6" transform="translate(828,440)"/>
<path d="M0 0 C-7.59527005 3.47288089 -14.70614646 5.90612562 -23 7 C-23 5.68 -23 4.36 -23 3 C-19.7 3.33 -16.4 3.66 -13 4 C-12.67 3.01 -12.34 2.02 -12 1 C-11.0925 0.855625 -10.185 0.71125 -9.25 0.5625 C-6.14616764 0.08075461 -6.14616764 0.08075461 -3.75 -0.625 C-2 -1 -2 -1 0 0 Z " fill="#A27CEF" transform="translate(767,813)"/>
<path d="M0 0 C0.33 0 0.66 0 1 0 C0.50387003 8.10345611 -2.320085 15.40525933 -5 23 C-6.0842218 19.70184278 -5.87002878 17.53900834 -5.0625 14.1875 C-4.13488637 9.98522347 -3.81346198 6.29037448 -4 2 C-3.67 3.32 -3.34 4.64 -3 6 C-2.34 6 -1.68 6 -1 6 C-0.67 4.02 -0.34 2.04 0 0 Z " fill="#8464ED" transform="translate(820,472)"/>
<path d="M0 0 C0 3.20395416 -0.74335022 5.09399739 -2 8 C-2.99 7.67 -3.98 7.34 -5 7 C-6.98 9.64 -8.96 12.28 -11 15 C-12.32 14.34 -13.64 13.68 -15 13 C-13.06478939 11.20580474 -11.1269646 9.41458671 -9.1875 7.625 C-8.64029297 7.11710938 -8.09308594 6.60921875 -7.52929688 6.0859375 C-5.09977985 3.84783697 -2.75431332 1.83620888 0 0 Z " fill="#7B5EED" transform="translate(626,649)"/>
<path d="M0 0 C1.98 0.66 3.96 1.32 6 2 C6 2.66 6 3.32 6 4 C6.5775 4.28875 7.155 4.5775 7.75 4.875 C9.15855521 5.5792776 10.55668477 6.30527875 11.9375 7.0625 C14.26847774 8.12203534 16.48156522 8.58026087 19 9 C18.34 10.65 17.68 12.3 17 14 C12.6436846 10.75947111 8.30806125 7.49194001 4 4.1875 C3.236875 3.60355469 2.47375 3.01960937 1.6875 2.41796875 C1.130625 1.95003906 0.57375 1.48210938 0 1 C0 0.67 0 0.34 0 0 Z " fill="#7F63F5" transform="translate(785,518)"/>
<path d="M0 0 C0.33 0.99 0.66 1.98 1 3 C3.84979639 4.11680706 3.84979639 4.11680706 7 5 C7.62777344 5.33644531 8.25554688 5.67289062 8.90234375 6.01953125 C11.25649766 7.11988997 13.16989318 7.39734352 15.75 7.625 C16.94882812 7.73714844 16.94882812 7.73714844 18.171875 7.8515625 C18.77515625 7.90054687 19.3784375 7.94953125 20 8 C19.01 8.33 18.02 8.66 17 9 C17 9.66 17 10.32 17 11 C17.66 11.33 18.32 11.66 19 12 C14.04001528 11.38367054 10.06328034 9.20164371 5.6875 6.9375 C4.94693359 6.56044922 4.20636719 6.18339844 3.44335938 5.79492188 C1.62612478 4.86871843 -0.18732404 3.93509371 -2 3 C-1.34 2.01 -0.68 1.02 0 0 Z " fill="#8565F7" transform="translate(736,488)"/>
<path d="M0 0 C1.24546405 2.49092811 0.7767578 3.41080733 0 6 C-0.99 6 -1.98 6 -3 6 C-2.67 6.99 -2.34 7.98 -2 9 C-2.99 9.99 -3.98 10.98 -5 12 C-4.67 12.66 -4.34 13.32 -4 14 C-4.99 14.33 -5.98 14.66 -7 15 C-8 12 -8 12 -6.85546875 9.3359375 C-6.30503906 8.35882812 -5.75460938 7.38171875 -5.1875 6.375 C-4.64480469 5.39273438 -4.10210937 4.41046875 -3.54296875 3.3984375 C-2 1 -2 1 0 0 Z " fill="#A67CF5" transform="translate(188,575)"/>
<path d="M0 0 C2.21957156 1.76853562 2.94131478 2.68925697 3.4765625 5.5234375 C3.55003906 6.93496094 3.55003906 6.93496094 3.625 8.375 C3.8354908 12.0134839 4.210037 15.43869138 5 19 C4.34 19.33 3.68 19.66 3 20 C1.08389845 13.35751464 0.43632909 6.88940671 0 0 Z " fill="#D2AAF5" transform="translate(189,408)"/>
<path d="M0 0 C0.66 0.33 1.32 0.66 2 1 C1.01 1.33 0.02 1.66 -1 2 C-1.33 2.99 -1.66 3.98 -2 5 C-6.33178248 7.20835969 -10.14254615 8.40762758 -15 9 C-12.41676876 6.0117325 -9.44464763 4.50570453 -5.9375 2.75 C-4.87402344 2.20859375 -3.81054688 1.6671875 -2.71484375 1.109375 C-1.81894531 0.74328125 -0.92304688 0.3771875 0 0 Z " fill="#8C67EE" transform="translate(386,453)"/>
<path d="M0 0 C1.30048841 2.60097682 1.56471422 5.13955062 2 8 C1.360625 8.103125 0.72125 8.20625 0.0625 8.3125 C-0.9584375 8.6528125 -0.9584375 8.6528125 -2 9 C-2.33 9.99 -2.66 10.98 -3 12 C-5.0625 12.6875 -5.0625 12.6875 -7 13 C-5.35821735 8.22390502 -2.73453298 4.20617096 0 0 Z " fill="#AC84F3" transform="translate(768,695)"/>
<path d="M0 0 C0.66 0.33 1.32 0.66 2 1 C-0.0978523 2.20005531 -2.2020249 3.38502983 -4.3125 4.5625 C-4.90740234 4.90474609 -5.50230469 5.24699219 -6.11523438 5.59960938 C-7.70282559 6.47766262 -9.34993931 7.24586268 -11 8 C-11.99 7.67 -12.98 7.34 -14 7 C-13.34 6.34 -12.68 5.68 -12 5 C-12.66 4.34 -13.32 3.68 -14 3 C-13.32453125 2.95101562 -12.6490625 2.90203125 -11.953125 2.8515625 C-11.06109375 2.77679687 -10.1690625 2.70203125 -9.25 2.625 C-8.36828125 2.55539062 -7.4865625 2.48578125 -6.578125 2.4140625 C-3.98391558 2.1295256 -3.98391558 2.1295256 -1.796875 0.8984375 C-0.90742188 0.45371094 -0.90742188 0.45371094 0 0 Z " fill="#A781F0" transform="translate(430,797)"/>
<path d="M0 0 C0.66 0.33 1.32 0.66 2 1 C0.2711195 2.41701589 -1.45811746 3.83359686 -3.1875 5.25 C-4.63189453 6.43335938 -4.63189453 6.43335938 -6.10546875 7.640625 C-8.72500523 9.77584772 -11.35729197 11.89356361 -14 14 C-14.66 13.67 -15.32 13.34 -16 13 C-15.67 12.34 -15.34 11.68 -15 11 C-14.34 11 -13.68 11 -13 11 C-13 10.34 -13 9.68 -13 9 C-11.61924657 8.02336952 -10.23013679 7.05635143 -8.80078125 6.15234375 C-5.78264961 4.22100138 -2.90734615 2.09328923 0 0 Z " fill="#986FFB" transform="translate(431,682)"/>
<path d="M0 0 C0.33 0 0.66 0 1 0 C0.88617347 1.95901454 0.75858875 3.9172338 0.625 5.875 C0.55539062 6.96554687 0.48578125 8.05609375 0.4140625 9.1796875 C0 12 0 12 -2 14 C-2.71408334 15.98356483 -3.38617742 17.98315437 -4 20 C-4.66 20 -5.32 20 -6 20 C-4 13.33333333 -2 6.66666667 0 0 Z " fill="#F1ECF9" transform="translate(812,502)"/>
<path d="M0 0 C0.99 0.33 1.98 0.66 3 1 C3 1.99 3 2.98 3 4 C3.66 3.34 4.32 2.68 5 2 C5 5.63 5 9.26 5 13 C4.34 13 3.68 13 3 13 C2.49487756 11.39743892 1.99608373 9.79288208 1.5 8.1875 C1.2215625 7.29417969 0.943125 6.40085937 0.65625 5.48046875 C0 3 0 3 0 0 Z " fill="#CEA2F5" transform="translate(203,472)"/>
<path d="M0 0 C-0.99 0.495 -0.99 0.495 -2 1 C-2 1.66 -2 2.32 -2 3 C-7.28 3 -12.56 3 -18 3 C-18 2.34 -18 1.68 -18 1 C-15.93769732 0.8309093 -13.8751477 0.66482867 -11.8125 0.5 C-10.08966797 0.36078125 -10.08966797 0.36078125 -8.33203125 0.21875 C-5.53927574 0.0354038 -2.79680188 -0.04213637 0 0 Z " fill="#F0F1EF" transform="translate(706,308)"/>
<path d="M0 0 C1.0828125 0.7115625 1.0828125 0.7115625 2.1875 1.4375 C4.89475226 2.94152903 6.96194275 3.56599182 10 4 C8 6 8 6 5.8359375 6.1953125 C4.61777344 6.16050781 4.61777344 6.16050781 3.375 6.125 C2.55773437 6.10695313 1.74046875 6.08890625 0.8984375 6.0703125 C0.27195312 6.04710937 -0.35453125 6.02390625 -1 6 C-1.66 4.68 -2.32 3.36 -3 2 C-2.01 1.34 -1.02 0.68 0 0 Z " fill="#AC85F9" transform="translate(683,820)"/>
<path d="M0 0 C0.66 0.33 1.32 0.66 2 1 C-1.3 3.97 -4.6 6.94 -8 10 C-8.66 9.67 -9.32 9.34 -10 9 C-9.01 7.68 -8.02 6.36 -7 5 C-7.66 5 -8.32 5 -9 5 C-8.67 4.01 -8.34 3.02 -8 2 C-7.34 2.33 -6.68 2.66 -6 3 C-2.73121478 1.96543458 -2.73121478 1.96543458 0 0 Z " fill="#AC83F3" transform="translate(507,742)"/>
<path d="M0 0 C4.96768758 1.55240237 9.17867057 4.51054781 13 8 C13 8.66 13 9.32 13 10 C12.34 10 11.68 10 11 10 C10.67 9.34 10.34 8.68 10 8 C9.21625 7.690625 8.4325 7.38125 7.625 7.0625 C4.99197101 5.99675017 3.95509727 4.95509727 2 3 C1.01 3 0.02 3 -1 3 C-0.67 2.01 -0.34 1.02 0 0 Z " fill="#D2A7F5" transform="translate(426,249)"/>
<path d="M0 0 C4.95 2.31 9.9 4.62 15 7 C14.67 7.66 14.34 8.32 14 9 C11.03 8.01 8.06 7.02 5 6 C5 5.34 5 4.68 5 4 C4.34 4 3.68 4 3 4 C2.67 4.66 2.34 5.32 2 6 C1.34 4.02 0.68 2.04 0 0 Z " fill="#D2A8F5" transform="translate(398,233)"/>
<path d="M0 0 C0.99 0.33 1.98 0.66 3 1 C0.67900295 3.5995167 -1.60039981 5.44536816 -4.625 7.125 C-7.95707482 8.77392741 -7.95707482 8.77392741 -10 11 C-9.63602389 8.16977199 -9.09235225 7.09216828 -7.0390625 5.04296875 C-6.24242187 4.43066406 -5.44578125 3.81835938 -4.625 3.1875 C-3.83351563 2.56230469 -3.04203125 1.93710937 -2.2265625 1.29296875 C-1.49179687 0.86628906 -0.75703125 0.43960938 0 0 Z " fill="#AF87FD" transform="translate(651,744)"/>
<path d="M0 0 C0.66 0 1.32 0 2 0 C2.19335938 0.71285156 2.38671875 1.42570312 2.5859375 2.16015625 C4.02412775 7.45013328 5.47852632 12.73336033 7 18 C2.98609707 15.32406471 2.80104549 12.32922444 1.8125 7.875 C1.63525391 7.12089844 1.45800781 6.36679687 1.27539062 5.58984375 C0.83962818 3.72902033 0.41841214 1.86480133 0 0 Z " fill="#CCA2F4" transform="translate(197,451)"/>
<path d="M0 0 C0 4.17561407 -1.83352478 5.53957787 -4.5 8.6875 C-5.3353125 9.68136719 -6.170625 10.67523438 -7.03125 11.69921875 C-8.00578125 12.83810547 -8.00578125 12.83810547 -9 14 C-9 11 -9 11 -7 8.5625 C-4.58981943 6.01622296 -4.58981943 6.01622296 -5 2 C-3.35 1.34 -1.7 0.68 0 0 Z " fill="#9069EE" transform="translate(597,373)"/>
<path d="M0 0 C0.33 0.99 0.66 1.98 1 3 C-0.43359375 5.04296875 -0.43359375 5.04296875 -2.4375 7.1875 C-3.09621094 7.90292969 -3.75492188 8.61835938 -4.43359375 9.35546875 C-5.20896484 10.16951172 -5.20896484 10.16951172 -6 11 C-6.99 10.67 -7.98 10.34 -9 10 C-6.03 6.7 -3.06 3.4 0 0 Z " fill="#966BF3" transform="translate(526,313)"/>
<path d="M0 0 C1 3 1 3 -0.0625 5.4375 C-2.33789848 8.44689798 -4.78341153 10.07004692 -8 12 C-6.49087042 7.01987239 -3.44338151 3.75740058 0 0 Z " fill="#DCB4F8" transform="translate(223,265)"/>
<path d="M0 0 C0.33 0.99 0.66 1.98 1 3 C-0.75 5.6875 -0.75 5.6875 -3 8 C-3.99 8 -4.98 8 -6 8 C-6.33 8.99 -6.66 9.98 -7 11 C-7.66 11 -8.32 11 -9 11 C-7.59155282 7.78475695 -5.89655214 5.67816132 -3.375 3.25 C-2.74335937 2.63640625 -2.11171875 2.0228125 -1.4609375 1.390625 C-0.73777344 0.70226562 -0.73777344 0.70226562 0 0 Z " fill="#9C71F2" transform="translate(537,301)"/>
<path d="M0 0 C0.99 0.33 1.98 0.66 3 1 C1.44298069 5.67105792 -1.08447373 9.08705685 -4 13 C-4.66 11.68 -5.32 10.36 -6 9 C-5.38125 8.814375 -4.7625 8.62875 -4.125 8.4375 C-0.94397134 6.28562767 -0.80548053 3.62466237 0 0 Z " fill="#765DED" transform="translate(737,649)"/>
<path d="M0 0 C0.66 0.33 1.32 0.66 2 1 C2 1.66 2 2.32 2 3 C0.20963542 3.9765625 -1.58072917 4.953125 -3.37109375 5.9296875 C-5.16618315 6.91410024 -5.16618315 6.91410024 -6 9 C-6.99 8.67 -7.98 8.34 -9 8 C-6.14723863 5.06799526 -3.34920216 2.35684596 0 0 Z " fill="#AD7FF5" transform="translate(599,247)"/>
<path d="M0 0 C11.36363636 1.36363636 11.36363636 1.36363636 15 5 C9.54520815 4.43179252 5.08940744 3.05362055 0 1 C0 0.67 0 0.34 0 0 Z " fill="#A27DEC" transform="translate(634,814)"/>
<path d="M0 0 C5.40489519 1.52012677 8.98492628 5.27385218 13 9 C8.72899427 9 7.20818658 6.68440102 4 4 C1.78264561 3.14720662 1.78264561 3.14720662 0 3 C0 2.01 0 1.02 0 0 Z " fill="#765AEC" transform="translate(496,600)"/>
<path d="M0 0 C3.625 0.375 3.625 0.375 7 1 C7 1.99 7 2.98 7 4 C4.03 4 1.06 4 -2 4 C-2 2 -2 2 0 0 Z " fill="#B687FA" transform="translate(664,220)"/>
<path d="M0 0 C0.99 0.33 1.98 0.66 3 1 C1.6062718 5.43458973 -0.60582235 7.87378374 -4 11 C-3.690625 10.443125 -3.38125 9.88625 -3.0625 9.3125 C-1.94040889 6.8703017 -1.48512053 4.63351145 -1 2 C-0.67 1.34 -0.34 0.68 0 0 Z " fill="#A780F3" transform="translate(834,753)"/>
<path d="M0 0 C3.37503669 1.1858237 5.64722731 2.27573689 8 5 C5.69 5.33 3.38 5.66 1 6 C0.67 4.02 0.34 2.04 0 0 Z " fill="#7D5EF4" transform="translate(465,578)"/>
<path d="M0 0 C0.99 0.33 1.98 0.66 3 1 C5.14255793 0.61067144 5.14255793 0.61067144 7 0 C4.45217026 2.97246802 1.54659117 4.41535288 -2 6 C-2.66 6 -3.32 6 -4 6 C-3.67 5.01 -3.34 4.02 -3 3 C-2.34 3.33 -1.68 3.66 -1 4 C-0.67 2.68 -0.34 1.36 0 0 Z " fill="#7C5BED" transform="translate(434,528)"/>
<path d="M0 0 C0.33 0 0.66 0 1 0 C1.36590746 1.72672034 1.71722195 3.45653655 2.0625 5.1875 C2.25972656 6.15042969 2.45695312 7.11335938 2.66015625 8.10546875 C3.00423947 11.03610862 2.74164697 13.16307068 2 16 C1.87625 15.46375 1.7525 14.9275 1.625 14.375 C1.00672556 11.88142231 1.00672556 11.88142231 -0.0625 9.0625 C-0.95487055 6.14742287 -1.25877602 4.01905352 -1 1 C-0.67 0.67 -0.34 0.34 0 0 Z " fill="#CCA7F3" transform="translate(282,410)"/>
<path d="M0 0 C0.33 0.66 0.66 1.32 1 2 C1.66 2 2.32 2 3 2 C4.5078125 3.53125 4.5078125 3.53125 6.125 5.5 C6.66382813 6.1496875 7.20265625 6.799375 7.7578125 7.46875 C8.37269531 8.22671875 8.37269531 8.22671875 9 9 C8.67 9.66 8.34 10.32 8 11 C5.03 8.03 2.06 5.06 -1 2 C-0.67 1.34 -0.34 0.68 0 0 Z " fill="#CBA1F3" transform="translate(404,347)"/>
<path d="M0 0 C3.64133239 2.42755493 6.97621981 4.8250308 10 8 C6.6875 7.8125 6.6875 7.8125 3 7 C1.07828158 4.58235424 0 3.11532786 0 0 Z " fill="#F1EEF3" transform="translate(585,793)"/>
<path d="M0 0 C5.50808397 0.59015185 10.64878069 1.56663769 16 3 C16 3.33 16 3.66 16 4 C9.80112515 4.37952295 5.5522888 3.8352113 0 1 C0 0.67 0 0.34 0 0 Z " fill="#A27BEC" transform="translate(670,729)"/>
<path d="M0 0 C1.37562854 1.28965176 2.70766393 2.62689293 4 4 C4 4.66 4 5.32 4 6 C4.66 6.33 5.32 6.66 6 7 C6.625 10.0625 6.625 10.0625 7 13 C3.70759125 10.20145256 1.96437054 6.79326725 0 3 C0 2.01 0 1.02 0 0 Z " fill="#CBA0FD" transform="translate(253,600)"/>
<path d="M0 0 C-1.81817001 2.31459868 -2.75615543 2.95377187 -5.69921875 3.51171875 C-7.17841797 3.59873047 -7.17841797 3.59873047 -8.6875 3.6875 C-10.17830078 3.78611328 -10.17830078 3.78611328 -11.69921875 3.88671875 C-12.45847656 3.92410156 -13.21773438 3.96148437 -14 4 C-11.58592302 2.39061535 -9.65955563 1.34509262 -7 0.3125 C-5.9790625 -0.09548828 -5.9790625 -0.09548828 -4.9375 -0.51171875 C-3 -1 -3 -1 0 0 Z " fill="#9068E7" transform="translate(338,476)"/>
<path d="M0 0 C0.66 0.99 1.32 1.98 2 3 C1.690625 3.598125 1.38125 4.19625 1.0625 4.8125 C-0.10209704 7.08956772 -0.10209704 7.08956772 -1 10 C-1.66 10 -2.32 10 -3 10 C-3.6875 7.6875 -3.6875 7.6875 -4 5 C-2.625 3.3125 -2.625 3.3125 -1 2 C-0.67 1.34 -0.34 0.68 0 0 Z " fill="#946EFC" transform="translate(820,468)"/>
<path d="M0 0 C0.66 0.33 1.32 0.66 2 1 C0.71520959 2.50589388 -0.57804082 4.00457375 -1.875 5.5 C-2.95394531 6.75296875 -2.95394531 6.75296875 -4.0546875 8.03125 C-4.69664062 8.6809375 -5.33859375 9.330625 -6 10 C-6.66 10 -7.32 10 -8 10 C-6.5682479 4.98886765 -4.01554307 3.05530451 0 0 Z " fill="#D4ABF7" transform="translate(296,318)"/>
<path d="M0 0 C0.886875 0.37125 1.77375 0.7425 2.6875 1.125 C6.40826005 2.10784228 7.67438135 1.76062164 11 0 C9.71034824 1.37562854 8.37310707 2.70766393 7 4 C6.34 4 5.68 4 5 4 C4.67 4.66 4.34 5.32 4 6 C3.34 4.68 2.68 3.36 2 2 C1.34 2 0.68 2 0 2 C0 1.34 0 0.68 0 0 Z " fill="#785DEB" transform="translate(583,676)"/>
<path d="M0 0 C1.32 0.33 2.64 0.66 4 1 C-0.455 4.465 -0.455 4.465 -5 8 C-5.66 7.67 -6.32 7.34 -7 7 C-5.47005208 5.76302083 -3.94010417 4.52604167 -2.41015625 3.2890625 C-0.86733563 2.0333609 -0.86733563 2.0333609 0 0 Z " fill="#7559EA" transform="translate(484,497)"/>
<path d="M0 0 C-2.49409061 1.57035335 -3.70443416 2.0274945 -6.6875 1.75 C-7.8321875 1.37875 -7.8321875 1.37875 -9 1 C-9.33 0.34 -9.66 -0.32 -10 -1 C-5.92224809 -1.9267618 -3.57818963 -2.33958553 0 0 Z " fill="#9770F8" transform="translate(379,462)"/>
<path d="M0 0 C0.66 0 1.32 0 2 0 C2.22174933 1.45635371 2.42698698 2.91522956 2.625 4.375 C2.74101562 5.18710937 2.85703125 5.99921875 2.9765625 6.8359375 C2.98429687 7.55007813 2.99203125 8.26421875 3 9 C2.34 9.66 1.68 10.32 1 11 C-0.17571451 7.32589215 -0.07366746 3.83070817 0 0 Z " fill="#D0A8F6" transform="translate(279,398)"/>
<path d="M0 0 C0 0.33 0 0.66 0 1 C-1.58294782 1.05437607 -3.16644256 1.09296271 -4.75 1.125 C-5.63171875 1.14820313 -6.5134375 1.17140625 -7.421875 1.1953125 C-10.1135858 0.99139502 -11.69904974 0.36551721 -14 -1 C-8.58264203 -1.93402724 -5.19548425 -2.20808081 0 0 Z " fill="#9D77E7" transform="translate(685,824)"/>
<path d="M0 0 C-0.99 1.485 -0.99 1.485 -2 3 C-5.125 3.1875 -5.125 3.1875 -8 3 C-7.67 2.01 -7.34 1.02 -7 0 C-4.05610218 -1.17755913 -3.10046087 -1.03348696 0 0 Z " fill="#B085F9" transform="translate(689,733)"/>
<path d="M0 0 C0.66 0.99 1.32 1.98 2 3 C-1.25978366 5.22257977 -4.44774296 7.28564986 -8 9 C-7.04270084 7.87411986 -6.08412105 6.7493285 -5.125 5.625 C-4.59132813 4.99851562 -4.05765625 4.37203125 -3.5078125 3.7265625 C-2.38567993 2.44163349 -1.20628025 1.20628025 0 0 Z " fill="#ECE5F8" transform="translate(700,701)"/>
<path d="M0 0 C3.63 0 7.26 0 11 0 C10.34 1.65 9.68 3.3 9 5 C8.34 4.67 7.68 4.34 7 4 C7 3.34 7 2.68 7 2 C4.69 1.67 2.38 1.34 0 1 C0 0.67 0 0.34 0 0 Z " fill="#8D6CFA" transform="translate(705,615)"/>
<path d="M0 0 C0 0.99 0 1.98 0 3 C-2.5654594 5.5654594 -4.47686668 5.54046087 -8 6 C-5.63379989 3.38472619 -3.057952 1.73559438 0 0 Z " fill="#AD86FD" transform="translate(601,778)"/>
<path d="M0 0 C0.33 1.32 0.66 2.64 1 4 C0.34 4 -0.32 4 -1 4 C-1 5.32 -1 6.64 -1 8 C-1.66 8 -2.32 8 -3 8 C-3.75 6.25 -3.75 6.25 -4 4 C-2.0625 1.75 -2.0625 1.75 0 0 Z " fill="#F2F1F1" transform="translate(854,727)"/>
<path d="M0 0 C0.66 0.33 1.32 0.66 2 1 C1.236875 1.4125 0.47375 1.825 -0.3125 2.25 C-2.9366642 3.95875809 -4.30321976 5.41017753 -6 8 C-6 7.01 -6 6.02 -6 5 C-6.66 4.67 -7.32 4.34 -8 4 C-6.71349294 3.30289269 -5.42059335 2.61757124 -4.125 1.9375 C-3.40570312 1.55464844 -2.68640625 1.17179688 -1.9453125 0.77734375 C-1.30335938 0.52082031 -0.66140625 0.26429688 0 0 Z " fill="#A680F0" transform="translate(740,725)"/>
<path d="M0 0 C0.66 0.33 1.32 0.66 2 1 C-1.08290155 5.22797927 -1.08290155 5.22797927 -3 7 C-5.8125 7.375 -5.8125 7.375 -8 7 C-5.4837822 4.39391727 -2.94865641 2.10618315 0 0 Z " fill="#A67EF0" transform="translate(750,718)"/>
<path d="M0 0 C0 3 0 3 -2.3125 5.5625 C-5 8 -5 8 -8 10 C-6.34908222 5.70761377 -3.26245434 3.1206085 0 0 Z " fill="#996DF1" transform="translate(218,535)"/>
<path d="M0 0 C2.31 0 4.62 0 7 0 C4.63404067 2.61500768 2.13950774 4.38999603 -1 6 C-1.66 5.67 -2.32 5.34 -3 5 C-2.01 4.34 -1.02 3.68 0 3 C0 2.01 0 1.02 0 0 Z " fill="#7B5DEB" transform="translate(448,520)"/>
<path d="M0 0 C0.33 0.66 0.66 1.32 1 2 C1.99 2 2.98 2 4 2 C3.67 3.32 3.34 4.64 3 6 C1.68 6.33 0.36 6.66 -1 7 C-0.67 4.69 -0.34 2.38 0 0 Z " fill="#946DFB" transform="translate(734,446)"/>
<path d="M0 0 C0 3 0 3 -1.3125 4.38671875 C-2.875 5.59114583 -4.4375 6.79557292 -6 8 C-6.33 7.01 -6.66 6.02 -7 5 C-4.69 3.35 -2.38 1.7 0 0 Z " fill="#B088FD" transform="translate(631,759)"/>
<path d="M0 0 C2.31 0 4.62 0 7 0 C6.67 0.99 6.34 1.98 6 3 C4.35 3.33 2.7 3.66 1 4 C0.67 2.68 0.34 1.36 0 0 Z " fill="#9C71FC" transform="translate(310,484)"/>
<path d="M0 0 C2 4 2 4 1.125 7.25 C0.75375 8.1575 0.3825 9.065 0 10 C-0.66 9.67 -1.32 9.34 -2 9 C-1.34 6.03 -0.68 3.06 0 0 Z " fill="#8E6AFC" transform="translate(726,473)"/>
<path d="M0 0 C0.33 0.66 0.66 1.32 1 2 C0.06421005 4.35981813 -0.93347808 6.69631264 -2 9 C-2.99 8.01 -3.98 7.02 -5 6 C-3.35 4.02 -1.7 2.04 0 0 Z " fill="#9368F3" transform="translate(516,325)"/>
<path d="M0 0 C0.66 0.99 1.32 1.98 2 3 C1.67 3.66 1.34 4.32 1 5 C-0.98 5 -2.96 5 -5 5 C-4.34 3.68 -3.68 2.36 -3 1 C-2.01 1.33 -1.02 1.66 0 2 C0 1.34 0 0.68 0 0 Z " fill="#AA83FA" transform="translate(308,821)"/>
<path d="M0 0 C2.16874252 0.50603992 3.99967627 0.99983813 6 2 C6.33 1.34 6.66 0.68 7 0 C7.33 0.99 7.66 1.98 8 3 C5.39417629 3.93065133 4.35801776 4.14917407 1.75 3.0625 C1.1725 2.711875 0.595 2.36125 0 2 C0 1.34 0 0.68 0 0 Z " fill="#AB81FC" transform="translate(604,800)"/>
<path d="M0 0 C-2.97 2.475 -2.97 2.475 -6 5 C-6.66 4.67 -7.32 4.34 -8 4 C-8 3.01 -8 2.02 -8 1 C-2.25 -1.125 -2.25 -1.125 0 0 Z " fill="#AA83F1" transform="translate(490,759)"/>
<path d="M0 0 C5.445 1.485 5.445 1.485 11 3 C7 5 7 5 4.375 4.3125 C2 3 2 3 0 0 Z " fill="#9970F3" transform="translate(350,723)"/>
<path d="M0 0 C0.6875 1.75 0.6875 1.75 1 4 C-0.4375 6.25 -0.4375 6.25 -2 8 C-2.93423645 4.98968256 -3.04449911 4.13349732 -2 1 C-1.34 0.67 -0.68 0.34 0 0 Z " fill="#9C74F9" transform="translate(259,629)"/>
<path d="M0 0 C2.61500768 2.36595933 4.38999603 4.86049226 6 8 C5.67 8.66 5.34 9.32 5 10 C2.08772731 6.71195019 0.50298788 4.40114397 0 0 Z " fill="#9A70F9" transform="translate(251,600)"/>
<path d="M0 0 C0.33 0.66 0.66 1.32 1 2 C-0.2739589 4.03833424 -1.61061923 6.03852126 -3 8 C-3.66 8 -4.32 8 -5 8 C-5.33 7.01 -5.66 6.02 -6 5 C-5.38125 4.731875 -4.7625 4.46375 -4.125 4.1875 C-1.7004767 3.04443152 -1.7004767 3.04443152 0 0 Z " fill="#F0EEF1" transform="translate(584,394)"/>
<path d="M0 0 C-0.66 0 -1.32 0 -2 0 C-2.33 0.99 -2.66 1.98 -3 3 C-5.31 2.67 -7.62 2.34 -10 2 C-3.75 -1.125 -3.75 -1.125 0 0 Z " fill="#A680EE" transform="translate(731,731)"/>
<path d="M0 0 C2 4 2 4 1.8125 6.1875 C1.4103125 7.0846875 1.4103125 7.0846875 1 8 C0.01 8.33 -0.98 8.66 -2 9 C-1.34 6.03 -0.68 3.06 0 0 Z " fill="#A17AF7" transform="translate(167,697)"/>
<path d="M0 0 C0.33 0 0.66 0 1 0 C0.67 3.3 0.34 6.6 0 10 C-0.66 9.67 -1.32 9.34 -2 9 C-2.20140476 5.37471432 -1.85776765 3.13498292 0 0 Z " fill="#8D67ED" transform="translate(828,440)"/>
</svg>
